<svg height="512pt" viewBox="-21 0 512 512" width="512pt" xmlns="http://www.w3.org/2000/svg"><path d="m50.214844 316.320312 30.234375 155.398438c4.554687 23.394531 25.042969 40.28125 48.875 40.28125h212.074219c23.828124 0 44.320312-16.886719 48.871093-40.28125l30.234375-155.398438zm0 0" fill="#b0f0ef"/><path d="m120.101562 316.320312 33.238282 195.679688h164.039062l33.238282-195.679688zm0 0" fill="#76e7e7"/><path d="m262.863281 512 15.96875-195.679688h-86.941406l15.96875 195.679688zm0 0" fill="#2eddda"/><path d="m235.359375 27.980469c-199.648437 0-235.359375 171.589843-235.359375 223.75 0 52.160156 42.285156 94.445312 94.445312 94.445312 20.007813 0 38.554688-6.226562 53.824219-16.84375 10.046875-6.984375 23.21875-6.984375 33.265625 0 15.269532 10.617188 33.816406 16.84375 53.824219 16.84375s38.558594-6.226562 53.828125-16.84375c10.042969-6.984375 23.21875-6.984375 33.261719 0 15.269531 10.617188 33.820312 16.84375 53.828125 16.84375 52.160156 0 94.441406-42.285156 94.441406-94.445312 0-52.160157-35.707031-223.75-235.359375-223.75zm0 0" fill="#ffc7a4"/><path d="m235.359375 275.296875c-94.394531-67.890625-93.378906-232.058594-93.378906-232.058594-118.066407 43.171875-141.980469 165.8125-141.980469 208.492188 0 52.160156 42.285156 94.441406 94.445312 94.441406 20.007813 0 38.554688-6.226563 53.824219-16.84375 10.046875-6.984375 23.21875-6.984375 33.265625 0 15.269532 10.617187 33.816406 16.84375 53.824219 16.84375 15.042969 0 29.257813-3.515625 41.875-9.773437-6.195313-23.113282-18.957031-44.621094-41.875-61.101563zm0 0" fill="#ffaa75"/><path d="m94.039062 207.136719c61.042969 0 68.988282-59.953125 141.320313-59.953125 72.335937 0 80.277344 59.953125 141.324219 59.953125 61.042968 0 70.996094-51.816407 70.996094-51.816407-28.53125-62.210937-89.296876-127.339843-212.320313-127.339843-123.019531 0-183.773437 65.101562-212.304687 127.316406 0 0 9.9375 51.839844 70.984374 51.839844zm0 0" fill="#dd6642"/><path d="m94.039062 207.136719c32.921876 0 50.398438-17.4375 70.859376-33.503907-23.320313-65.203124-22.917969-130.394531-22.917969-130.394531-62.679688 22.921875-98.808594 68.195313-118.925781 112.058594 0 0 9.9375 51.839844 70.984374 51.839844zm0 0" fill="#b24e2f"/><path d="m121.714844 82.796875c0 15.453125-12.527344 27.980469-27.980469 27.980469-15.457031 0-27.984375-12.527344-27.984375-27.980469s12.527344-27.980469 27.984375-27.980469c15.453125 0 27.980469 12.527344 27.980469 27.980469zm0 0" fill="#f4e74d"/><path d="m215.921875 27.980469c0 15.457031-12.527344 27.984375-27.984375 27.984375-15.453125 0-27.980469-12.527344-27.980469-27.984375 0-15.453125 12.527344-27.980469 27.980469-27.980469 15.457031 0 27.984375 12.527344 27.984375 27.980469zm0 0" fill="#ffabcd"/><path d="m301.347656 89.578125c0 15.453125-12.527344 27.980469-27.984375 27.980469-15.453125 0-27.980469-12.527344-27.980469-27.980469s12.527344-27.984375 27.980469-27.984375c15.457031 0 27.984375 12.53125 27.984375 27.984375zm0 0" fill="#76e7e7"/><path d="m413.820312 72.664062c0 15.453126-12.53125 27.984376-27.984374 27.984376-15.453126 0-27.980469-12.53125-27.980469-27.984376 0-15.453124 12.527343-27.980468 27.980469-27.980468 15.453124 0 27.984374 12.527344 27.984374 27.980468zm0 0" fill="#f9ee80"/></svg>