<svg height="437pt" viewBox="0 0 437.14754 437" width="437pt" xmlns="http://www.w3.org/2000/svg"><path d="m1.71875 435.375 7 .679688c58.367188 5.648437 116.117188-15.660157 156.828125-57.867188 40.710937-42.203125 59.921875-100.6875 52.171875-158.8125l-.9375-.121094c-59.085938-7.628906-118.367188 12.574219-160.496094 54.703125-42.128906 42.128907-62.332031 101.410157-54.703125 160.5zm0 0" fill="#38876a"/><path d="m219.464844 217.777344 7 .671875c58.363281 5.644531 116.113281-15.664063 156.824218-57.867188 40.707032-42.203125 59.921876-100.683593 52.175782-158.804687l-.945313-.121094c-59.085937-7.628906-118.367187 12.578125-160.496093 54.703125-42.125 42.128906-62.332032 101.410156-54.703126 160.496094zm0 0" fill="#38876a"/><path d="m217.71875 219.375v29.207031c0 37.851563 17.070312 73.683594 46.460938 97.53125 29.394531 23.847657 67.972656 33.171875 105.011718 25.375l.527344-.113281c7.785156-36.988281-1.5-75.515625-25.28125-104.898438-23.785156-29.378906-59.535156-46.484374-97.335938-46.574218-17.839843-.054688-29.703124-.207032-29.382812-.527344zm0 0" fill="#58af7a"/><path d="m217.71875 219.375v-29.207031c0-37.851563-17.070312-73.683594-46.464844-97.535157-29.394531-23.847656-67.976562-33.167968-105.015625-25.371093l-.519531.113281c-7.769531 36.984375 1.519531 75.503906 25.300781 104.878906 23.777344 29.378906 59.515625 46.488282 97.308594 46.59375 17.839844.054688 29.703125.207032 29.390625.527344zm0 0" fill="#58af7a"/><path d="m415.375 33.03125-11.320312-11.320312-53 53.007812-5.449219-32.664062-15.773438 2.640624 7.320313 43.929688-33.777344 33.773438-5.734375-40.160157-15.839844 2.273438 7.429688 52.03125-26.597657 26.601562-5.074218-25.335937-15.679688 3.136718 7.152344 35.796876-31.320312 31.320312-31.992188-31.992188v-36.695312h-16v20.6875l-24-24v-36.6875h-16v20.6875l-34.34375-34.34375-11.3125 11.3125 34.34375 34.34375h-20.6875v16h36.6875l23.992188 24h-20.679688v16h36.679688l32 32-39.992188 40h-52.6875v16h36.6875l-24 24h-44.6875v16h28.6875l-24 24h-36.6875v16h20.6875l-34.34375 34.34375 11.3125 11.3125 37.433594-37.433594 5.070312 25.347656 15.679688-3.136718-7.160156-35.808594 25.984374-25.976562 5.449219 32.671874 15.773438-2.640624-7.320313-43.933594 25.777344-25.777344 5.738281 40.167969 15.839844-2.273438-7.441406-52.039062 39.519531-39.511719 24 24v36.6875h16v-20.6875l24 24v36.6875h16v-20.6875l34.34375 34.34375 11.3125-11.3125-34.34375-34.34375h20.6875v-16h-36.6875l-24-24h20.6875v-16h-36.6875l-24-24 32-32h44.6875v-16h-28.695312l24.40625-24.398438 61.28125-7.664062-1.984376-15.871094-40.871093 5.101563 29.167969-29.167969h44.695312v-16h-28.695312zm0 0" fill="#77c974"/></svg>