<?xml version="1.0" encoding="iso-8859-1"?>
<!-- Generator: Adobe Illustrator 19.0.0, SVG Export Plug-In . SVG Version: 6.00 Build 0)  -->
<svg version="1.1" id="Capa_1" xmlns="http://www.w3.org/2000/svg" xmlns:xlink="http://www.w3.org/1999/xlink" x="0px" y="0px"
	 viewBox="0 0 512 512" style="enable-background:new 0 0 512 512;" xml:space="preserve">
<path style="fill:#FFE257;" d="M323.667,160.911H99.6c-35.841,0-65,29.159-65,65v157h289.066L323.667,160.911L323.667,160.911z"/>
<rect x="257.06" y="160.91" style="fill:#FFDB2D;" width="66.61" height="222"/>
<path style="fill:#FFE981;" d="M417.904,160.911c5.931-9.604,9.363-20.907,9.363-33c0-34.738-28.262-63-63-63h-4
	c-31.43,0-56.999,25.57-56.999,56.999h30c0-14.888,12.111-26.999,26.999-26.999h4c18.196,0,33,14.804,33,33s-14.804,33-33,33h-65.6
	v222H477.4v-222H417.904L417.904,160.911z"/>
<path style="fill:#FFF1AB;" d="M417.904,160.911c5.931-9.604,9.363-20.907,9.363-33c0-34.738-28.262-63-63-63h-4
	c-31.43,0-56.999,25.57-56.999,56.999h30c0-14.888,12.111-26.999,26.999-26.999h4c18.196,0,33,14.804,33,33s-14.804,33-33,33
	H417.904z"/>
<polygon style="fill:#FF9900;" points="0,352.605 25.046,447.089 486.953,447.089 512,352.605 "/>
<polygon style="fill:#FF5D00;" points="256,352.605 256,447.089 486.954,447.089 512,352.605 "/>
<g>
</g>
<g>
</g>
<g>
</g>
<g>
</g>
<g>
</g>
<g>
</g>
<g>
</g>
<g>
</g>
<g>
</g>
<g>
</g>
<g>
</g>
<g>
</g>
<g>
</g>
<g>
</g>
<g>
</g>
</svg>
