<svg height="472pt" viewBox="-64 0 472 472" width="472pt" xmlns="http://www.w3.org/2000/svg"><path d="m169.839844 73.199219 22.160156 14.800781-24 24 32 24-24 16v40l-7.121094-3.519531-24.878906-12.480469v204.238281c.015625 21.917969 12.398438 41.953125 32 51.761719h-14.078125c-31.992187.007812-57.929687-25.929688-57.921875-57.921875v-182.078125l-40 16-8-40h-40l16-32-32-24 48-16-32-40 56-8-8-40 40 24 24-32 16 32 32-8v40zm0 0" fill="#77c974"/><path d="m208 208v171.039062c.003906 18.21875-8.558594 35.375-23.121094 46.320313l-8.878906 6.640625c-19.601562-9.808594-31.984375-29.84375-32-51.761719v-204.238281l24.878906 12.480469 7.121094 35.519531zm0 0" fill="#7ed39c"/><path d="m320 216-40 16v32l-32-16v-64l40 16v-16zm0 0" fill="#77c974"/><path d="m248 184v188.160156c.011719 29.523438-22.179688 54.332032-51.519531 57.601563l-20.480469 2.238281 8.878906-6.640625c14.5625-10.945313 23.125-28.101563 23.121094-46.320313v-171.039062l-32 16-7.121094-35.519531 7.121094 3.519531v-40l24-16-32-24 24-24-22.160156-14.800781 6.160156-9.199219 24-40 24 32 16-40 40 32 32-8v40l32 16-40 32 16 32-32 8v32zm0 0" fill="#58af7a"/><path d="m176 440h-14.078125c-36.390625-.039062-65.882813-29.53125-65.921875-65.921875v-214.078125h16v214.078125c.035156 27.558594 22.363281 49.886719 49.921875 49.921875h13.636719l20.050781-2.191406c25.285156-2.816406 44.410156-24.203125 44.390625-49.648438v-260.160156h16v260.160156c.027344 33.601563-25.234375 61.84375-58.632812 65.550782l-20.503907 2.242187c-.285156.03125-.574219.046875-.863281.046875zm0 0" fill="#2e8059"/><path d="m176 440c-1.246094 0-2.476562-.289062-3.59375-.847656-22.355469-11.109375-36.46875-33.945313-36.40625-58.914063v-276.238281h16v276.238281c-.046875 17.179688 8.796875 33.160157 23.375 42.242188l4.722656-3.527344c12.496094-9.472656 19.855469-24.234375 19.902344-39.914063v-259.039062h16v259.039062c-.054688 20.714844-9.785156 40.214844-26.304688 52.714844l-8.894531 6.644532c-1.386719 1.039062-3.070312 1.601562-4.800781 1.601562zm0 0" fill="#2e8059"/><g fill="#8a4325"><path d="m232 472h-16c-.058594-14.355469-10.597656-26.511719-24.800781-28.601562l-23.085938-3.300782-15.953125 2.65625c-13.960937 2.277344-24.199218 14.355469-24.160156 28.503906l-16 .742188v-.742188c-.042969-21.960937 15.839844-40.714843 37.503906-44.289062l17.183594-2.855469c.8125-.132812 1.636719-.132812 2.449219 0l24.320312 3.472657c22.054688 3.246093 38.433594 22.121093 38.542969 44.414062zm0 0"/><path d="m200 472h-16c-.019531-8.117188-3.242188-15.898438-8.96875-21.65625l-5.792969-5.792969-4.09375 6.152344c-3.355469 5.03125-5.144531 10.945313-5.144531 16.992187v4.304688h-16v-4.304688c-.007812-9.203124 2.714844-18.207031 7.824219-25.863281l9.519531-14.273437c1.332031-1.992188 3.484375-3.285156 5.867188-3.519532 2.386718-.234374 4.75.609376 6.445312 2.304688l12.6875 12.6875c8.714844 8.765625 13.621094 20.609375 13.65625 32.96875zm0 0"/></g></svg>