<?xml version="1.0" encoding="iso-8859-1"?>
<!-- Generator: Adobe Illustrator 19.0.0, SVG Export Plug-In . SVG Version: 6.00 Build 0)  -->
<svg xmlns="http://www.w3.org/2000/svg" xmlns:xlink="http://www.w3.org/1999/xlink" version="1.1" id="Layer_1" x="0px" y="0px" viewBox="0 0 512 512" style="enable-background:new 0 0 512 512;" xml:space="preserve" width="512" height="512">
<g>
	<path style="fill:#CDBFBA;" d="M451,452v-91h-60v91c-16.569,0-30,13.431-30,30c0,16.567,13.431,30,30,30s30-13.433,30-30   c0,16.567,13.431,30,30,30s30-13.433,30-30C481,465.431,467.569,452,451,452z"/>
	<path style="fill:#EFE2DD;" d="M121,452v-91H61v91c-16.569,0-30,13.431-30,30c0,16.567,13.431,30,30,30s30-13.433,30-30   c0,16.567,13.431,30,30,30s30-13.433,30-30C151,465.431,137.569,452,121,452z"/>
	<path style="fill:#F4995B;" d="M421,391c-34.233,0-60-63.691-60-105c0-41.353,26.909-75,60-75c28.975,0,60,30.132,60,75   C481,327.47,454.12,391,421,391z"/>
	<path style="fill:#F6A96C;" d="M91,391c-34.233,0-60-63.691-60-105c0-41.353,26.909-75,60-75c28.975,0,60,30.132,60,75   C151,327.47,124.12,391,91,391z"/>
	<path style="fill:#FFBD86;" d="M301,0c-15.901,0-31.5,4.2-45,11.999C199.3-20.7,121,18.3,121,90v161.8   c0,87.599,75.3,120.3,81.599,126.599C214.9,386.499,229.3,391,244.3,391H267.7c15,0,29.399-4.501,41.7-12.601   C315.7,372.1,391,339.399,391,251.8v-157C391,46.5,351.7,0,301,0z"/>
	<path style="fill:#F6A96C;" d="M391,94.799v157c0,87.599-75.3,120.3-81.599,126.599C297.1,386.499,282.7,391,267.7,391H256V11.999   C269.5,4.2,285.099,0,301,0C351.7,0,391,46.5,391,94.799z"/>
	<rect x="241" y="301" style="fill:#F6A96C;" width="30" height="30"/>
	<rect x="181" y="271" style="fill:#F6A96C;" width="30" height="30"/>
	<rect x="301" y="271" style="fill:#F4995B;" width="30" height="30"/>
	<rect x="241" y="241" style="fill:#F6A96C;" width="30" height="30"/>
	<rect x="301" y="211" style="fill:#F4995B;" width="30" height="30"/>
	<rect x="181" y="211" style="fill:#F6A96C;" width="30" height="30"/>
	<path style="fill:#FED2A4;" d="M74.165,163.828c-18.319,0-32.01-9.012-34.395-26.221L29.106,60H0C4.233,25.225,22.778,0,44.106,0   C61.45,0,77.402,16.743,84.771,42.671l4.6,16.172l15.542-6.401c18.884-7.79,44.323-10.699,57.246,5.068   c19.182,23.451-5.675,62.795-29.561,82.324C113.95,155.083,92.666,163.828,74.165,163.828z"/>
	<path style="fill:#FFBD86;" d="M436.835,163.828c-18.486,0-39.771-8.745-58.418-23.994c-23.829-19.483-48.72-58.901-29.561-82.324   c12.829-15.706,38.14-12.95,57.246-5.068l15.542,6.416l4.6-16.187C433.612,16.743,449.564,0,466.908,0   C488.236,0,507.781,25.225,512,60h-30.092l-10.664,77.578C468.887,154.735,455.242,163.828,436.835,163.828z"/>
	<rect x="256" y="301" style="fill:#F4995B;" width="15" height="30"/>
	<rect x="256" y="241" style="fill:#F4995B;" width="15" height="30"/>
</g>















</svg>
