<svg height="512pt" viewBox="0 0 512 512" width="512pt" xmlns="http://www.w3.org/2000/svg"><path d="m308.5 30.601562c-10.5-18.601562-30.300781-30.601562-52.5-30.601562s-42 12-52.5 30.601562c-26.402344-4.203124-52.5 18.097657-52.5 45.398438 0 8.402344 3 16.199219 8.101562 22.800781l85.199219 106.5c2.699219 3.597657 7.199219 5.699219 11.699219 5.699219s9-2.101562 11.699219-5.699219l85.199219-106.5c5.101562-6.601562 8.101562-14.398437 8.101562-22.800781 0-27.300781-25.800781-49.898438-52.5-45.398438zm0 0" fill="#90e36a"/><path d="m169.632812 304.632812c-.558593 0-1.097656-.027343-1.65625-.085937l-133.117187-13.546875c-8.175781-.921875-15.863281-4.613281-21.695313-10.414062-17.546874-17.5625-17.546874-46.101563-.027343-63.664063 1.832031-1.816406 3.777343-3.472656 5.859375-4.9375-5.847656-20.492187-.382813-42.949219 15.378906-58.695313 15.75-15.773437 38.175781-21.226562 58.699219-15.378906 1.464843-2.082031 3.117187-4.027344 4.933593-5.847656 17.535157-17.546875 46.101563-17.546875 63.632813 0 5.816406 5.847656 9.523437 13.535156 10.445313 21.679688l12.460937 134.234374c.496094 4.527344-1.085937 9.039063-4.308594 12.261719-2.828125 2.828125-6.652343 4.394531-10.605469 4.394531zm0 0" fill="#90e36a"/><g fill="#70da40"><path d="m342.367188 304.632812c-3.957032 0-7.777344-1.566406-10.605469-4.394531-3.222657-3.222656-4.804688-7.734375-4.308594-12.261719l12.460937-134.203124c.921876-8.175782 4.613282-15.863282 10.414063-21.695313 17.578125-17.546875 46.113281-17.546875 63.664063-.027344 1.8125 1.832031 3.457031 3.777344 4.933593 5.859375 20.480469-5.847656 42.9375-.398437 58.699219 15.378906 15.761719 15.746094 21.222656 38.203126 15.378906 58.695313 2.082032 1.464844 4.027344 3.121094 5.84375 4.9375 17.535156 17.5625 17.535156 46.101563 0 63.632813-5.84375 5.816406-13.535156 9.523437-21.679687 10.445312l-133.144531 13.546875c-.558594.058594-1.101563.085937-1.65625.085937zm0 0"/><path d="m361 76c0 8.402344-3 16.199219-8.101562 22.800781l-85.199219 106.5c-2.699219 3.597657-7.199219 5.699219-11.699219 5.699219v-211c22.199219 0 42 12 52.5 30.601562 26.699219-4.5 52.5 18.097657 52.5 45.398438zm0 0"/><path d="m413.882812 238.027344-62.785156 64.171875c-12.898437 12.902343-20.097656 30-20.097656 48.300781v25.5c0 41.398438-33.601562 75-75 75s-75-33.601562-75-75v-20.097656c0-21.300782-8.699219-42.300782-23.699219-57.601563l-59.183593-60.273437c-6-5.699219-6-15.296875 0-21 5.699218-6 15.296874-6 21 0l59.183593 60.273437c20.699219 20.699219 32.699219 49.199219 32.699219 78.601563v20.097656c0 24.902344 20.101562 45 45 45 24.902344 0 45-20.097656 45-45v-25.5c0-26.398438 10.203125-51 28.800781-69.597656l63.085938-63.871094c5.703125-6 15.300781-6 21 0 5.996093 5.699219 5.996093 15.296875-.003907 20.996094zm0 0"/></g><path d="m413.882812 238.027344-62.785156 64.171875c-12.898437 12.902343-20.097656 30-20.097656 48.300781v25.5c0 41.398438-33.601562 75-75 75v-30c24.902344 0 45-20.097656 45-45v-25.5c0-26.398438 10.203125-51 28.800781-69.597656l63.085938-63.871094c5.699219-6 15.296875-6 21 0 5.996093 5.699219 5.996093 15.296875-.003907 20.996094zm0 0" fill="#56c225"/><path d="m271 106v391c0 8.402344-6.601562 15-15 15-8.402344 0-15-6.597656-15-15v-391c0-8.402344 6.597656-15 15-15 8.398438 0 15 6.597656 15 15zm0 0" fill="#70da40"/><path d="m271 106v391c0 8.402344-6.601562 15-15 15v-421c8.398438 0 15 6.597656 15 15zm0 0" fill="#56c225"/></svg>