<svg height="416pt" viewBox="-8 0 416 416.00012" width="416pt" xmlns="http://www.w3.org/2000/svg"><path d="m112 336h-88c13.28125 0 8.753906-12.222656 8.753906-25.496094.003906-5.582031-1.949218-10.992187-5.523437-15.28125l5.523437-.71875 251.375-254.503906h42.269532l2.480468 2.238281s-230.160156 293.761719-216.878906 293.761719zm0 0" fill="#f3a630"/><path d="m288.960938 40-246.984376 262.398438-29.976562-9.902344 260-292.496094h8.398438c7.984374.460938 14.96875 5.523438 17.890624 12.964844 2.921876 7.445312 1.246094 15.90625-4.289062 21.675781zm0 0" fill="#c06515"/><path d="m392 24-260.199219 300.800781-30.199219-34.113281 220.878907-248.449219 22.71875-25.597656 12.878906-14.480469c3.121094-1.410156 6.5-2.1484372 9.921875-2.160156 13.253906 0 24 10.746094 24 24zm0 0" fill="#c06515"/><path d="m112 288c13.253906 0 24 10.746094 24 24 .03125 2.5625-.402344 5.109375-1.28125 7.519531-3.523438 10.730469-14.0625 17.542969-25.292969 16.351563-11.230469-1.195313-20.101562-10.066406-21.296875-21.296875-1.191406-11.230469 5.621094-21.769531 16.351563-25.292969 2.410156-.878906 4.957031-1.3125 7.519531-1.28125zm0 0" fill="#8a4325"/><path d="m24 288c13.242188.027344 23.972656 10.757812 24 24 .035156 12.277344-9.199219 22.605469-21.40625 23.929688-12.207031 1.328124-23.449219-6.773438-26.050781-18.773438-2.597657-12 4.277343-24.027344 15.9375-27.875 2.410156-.878906 4.957031-1.3125 7.519531-1.28125zm0 0" fill="#8a4325"/><path d="m400 392c0 13.253906-10.746094 24-24 24h-48c-9.355469.03125-17.863281-5.414062-21.761719-13.921875-1.4375-3.039063-243.550781-299.277344-243.550781-299.277344l34.265625-1.519531zm0 0" fill="#f3a630"/><path d="m69.839844 102.480469 250.160156 257.519531c-8.800781 0-16 32-16 32-.007812 3.484375.757812 6.925781 2.238281 10.078125l-274.238281-282.078125-2-2c-3.84375-3.839844-6-9.046875-6-14.480469v-7.519531c.027344-8.824219 7.175781-15.972656 16-16h8zm0 0" fill="#c06515"/><path d="m331.28125 387.28125c-2.964844 3.039062-7.035156 4.742188-11.28125 4.71875h-16v-16c.027344-8.824219 7.175781-15.972656 16-16 6.472656-.019531 12.316406 3.875 14.789062 9.855469 2.476563 5.984375 1.085938 12.867187-3.507812 17.425781zm0 0" fill="#8a4325"/><path d="m112 80 283.28125 284.71875-5.28125 4.527344c-1.921875-.796875-20.238281 15.152344-17.28125 18.035156l-279.4375-285.839844-5.28125-5.441406c.066406-8.808594 7.191406-15.933594 16-16zm0 0" fill="#c06515"/><path d="m384 360c2.144531.007812 4.265625.441406 6.238281 1.28125 1.90625.773438 3.625 1.949219 5.042969 3.4375 3.039062 2.964844 4.742188 7.035156 4.71875 11.28125v16h-16c-8.835938 0-16-7.164062-16-16s7.164062-16 16-16zm0 0" fill="#8a4325"/></svg>