<?xml version="1.0"?>
<svg xmlns="http://www.w3.org/2000/svg" id="Layer_1" data-name="Layer 1" viewBox="0 0 512 512" width="512" height="512"><title>Candy</title><g id="_Group_2" data-name=" Group 2"><path d="M109.74,225.09a36.884,36.884,0,0,1,0,61.82L33.5,336.5v-161Z" style="fill:#fedb41"/><path d="M385.5,256a36.888,36.888,0,0,1,16.76-30.91L478.5,175.5v161l-76.24-49.59A36.9,36.9,0,0,1,385.5,256Z" style="fill:#fedb41"/><path d="M439.9,268.867,400.476,256.5,439.9,244.133a8,8,0,1,0-4.79-15.266l-51,16a7.912,7.912,0,0,0-4.518,11.616,7.981,7.981,0,0,0,4.518,11.65l51,16a8,8,0,1,0,4.79-15.266Z" style="fill:#f4b844"/><path d="M127.9,243.867l-51-16a8,8,0,0,0-4.79,15.266L111.524,255.5,72.105,267.867a8,8,0,1,0,4.79,15.266l51-16a7.981,7.981,0,0,0,4.518-11.65,7.912,7.912,0,0,0-4.518-11.616Z" style="fill:#f4b844"/></g><path d="M385.5,256v29a40,40,0,0,1-40,40h-179a40,40,0,0,1-40-40V227a40,40,0,0,1,40-40h179a40,40,0,0,1,40,40Z" style="fill:#00acea"/></svg>
