<svg height="512pt" viewBox="0 -132 512 512" width="512pt" xmlns="http://www.w3.org/2000/svg"><path d="m359.695312 15.003906h-2.683593v-15.003906h-305.628907c-24.832031 0-45.03125 20.207031-45.03125 45.046875v96.917969c0 24.828125 20.203126 45.03125 45.03125 45.03125h305.625v-14.996094h2.6875c15.109376 0 27.359376-12.246094 27.359376-27.355469v-102.28125c0-15.109375-12.25-27.359375-27.359376-27.359375zm0 0" fill="#ffdd48"/><path d="m466.761719.00390625h-159.417969c-23.355469 0-42.355469 19.00390575-42.355469 42.35546875v102.285156c0 23.355469 19 42.355469 42.355469 42.355469h159.417969c23.355469 0 42.355469-19 42.355469-42.355469v-102.28125c0-23.355469-19-42.35937475-42.355469-42.35937475zm0 0" fill="#ffa820"/><path d="m512 172.996094v26.859375c0 26.640625-21.671875 48.3125-48.308594 48.3125h-415.382812c-26.636719 0-48.308594-21.671875-48.308594-48.3125v-26.859375zm0 0" fill="#7d0"/><path d="m512 172.996094v26.859375c0 26.640625-21.671875 48.3125-48.308594 48.3125h-207.691406v-75.171875zm0 0" fill="#67bc00"/></svg>