<svg viewBox="0 0 512 512" xmlns="http://www.w3.org/2000/svg"><path d="m512 256c0 141.386719-114.613281 256-256 256-18.828125 0-37.175781-2.050781-54.847656-5.910156-21.253906-97.351563-97.890625-173.988282-195.242188-195.242188-3.859375-17.671875-5.910156-36.019531-5.910156-54.847656 0-141.386719 114.613281-256 256-256s256 114.613281 256 256zm0 0" fill="#2b6c7e"/><path d="m5.875 310.6875 189.027344-240.582031c-5.035156-6.664063-5.082032-16.015625.210937-22.753907l12.992188-16.535156 273.078125 273.078125-16.539063 12.992188c-6.734375 5.292969-16.085937 5.246093-22.75.207031l-240.582031 189.03125c-97.484375-21.214844-174.222656-97.953125-195.4375-195.4375zm0 0" fill="#f5dc90"/><path d="m22.1875 360.382812 179.683594-228.6875c3.457031-4.398437 9.976562-4.789062 13.933594-.835937l167.753906 167.757813c5.625 5.625 14.84375 5.460937 20.257812-.488282 5.070313-5.574218 4.578125-14.25-.746094-19.578125l-177.289062-177.289062.125-.15625c-5.039062-6.664063-5.085938-16.015625.207031-22.75l12.992188-16.539063 242.074219 242.078125-16.535157 12.992188c-6.734375 5.292969-16.085937 5.242187-22.75.207031l-240.582031 189.03125c-80.203125-17.453125-146.371094-72.488281-179.125-145.742188zm0 0" fill="#f7e6b0"/><path d="m262.308594 98.214844-62.304688-62.304688c-3.902344-3.90625-3.902344-10.238281 0-14.140625l18.839844-18.839843c3.902344-3.90625 10.234375-3.90625 14.140625 0l62.304687 62.304687c3.90625 3.90625 3.90625 10.238281 0 14.144531l-18.835937 18.835938c-3.90625 3.90625-10.238281 3.90625-14.144531 0zm0 0" fill="#03bdd6"/><path d="m509.070312 293.15625-18.835937 18.839844c-3.90625 3.902344-10.238281 3.902344-14.144531 0l-83.4375-83.441406h-86.953125c-12.292969 0-22.253907-9.960938-22.253907-22.253907v-86.953125l-54.417968-54.414062c-3.90625-3.90625-3.90625-10.238282 0-14.144532l18.839844-18.835937c3.902343-3.90625 10.234374-3.90625 14.140624 0l247.0625 247.0625c3.90625 3.90625 3.90625 10.238281 0 14.140625zm0 0" fill="#2ed0e1"/><path d="m245.703125 371.835938c-29.144531 29.140624-76.394531 29.140624-105.539063 0-29.140624-29.144532-29.140624-76.394532 0-105.539063 29.144532-29.140625 76.394532-29.140625 105.539063 0 29.144531 29.144531 29.144531 76.394531 0 105.539063zm0 0" fill="#f3d373"/><path d="m238.734375 351.675781c-12.542969-12.546875-32.882813-12.546875-45.429687 0l-.371094.371094c-9 9-23.527344 9.105469-32.660156.316406-9.417969-9.070312-9.195313-24.425781.050781-33.667969 12.542969-12.546874 12.542969-32.886718 0-45.429687l-13.140625-13.140625c29.277344-22.78125 71.609375-20.738281 98.515625 6.171875 26.910156 26.90625 28.953125 69.238281 6.171875 98.515625zm0 0" fill="#fff5f5"/></svg>