<svg height="512pt" viewBox="0 -141 512.001 512" width="512pt" xmlns="http://www.w3.org/2000/svg"><path d="m232.8125 105.890625c1.917969-5.648437 2.972656-11.699219 2.972656-17.996094 0-30.890625-25.039062-87.894531-55.929687-87.894531s-55.933594 57.003906-55.933594 87.894531c0 6.296875 1.058594 12.34375 2.976563 17.996094zm0 0" fill="#f5ca70"/><path d="m391.144531 105.890625c1.917969-5.648437 2.976563-11.699219 2.976563-17.996094 0-30.890625-25.042969-87.894531-55.933594-87.894531-30.886719 0-55.929688 57.003906-55.929688 87.894531 0 6.296875 1.054688 12.34375 2.976563 17.996094zm0 0" fill="#f5ca70"/><path d="m119.074219 229.511719h-43.105469c-7.433594 0-14.03125-4.75-16.390625-11.796875l-21.679687-64.78125h119.246093l-21.675781 64.78125c-2.359375 7.046875-8.960938 11.796875-16.394531 11.796875zm0 0" fill="#eeedee"/><path d="m150.476562 105.890625c1.921876-5.648437 2.976563-11.699219 2.976563-17.996094 0-30.890625-25.042969-87.894531-55.929687-87.894531-30.890626 0-55.933594 57.003906-55.933594 87.894531 0 6.296875 1.054687 12.347657 2.976562 17.996094zm0 0" fill="#fcd78b"/><path d="m85.164062 3.015625c3.976563-1.9375 8.109376-3.015625 12.359376-3.015625 30.886718 0 55.929687 57.003906 55.929687 87.894531 0 6.296875-1.054687 12.34375-2.976563 17.996094h-24.71875c1.921876-5.648437 2.976563-11.699219 2.976563-17.996094 0-26.644531-18.628906-72.710937-43.570313-84.878906zm0 0" fill="#e0c07c"/><path d="m277.554688 229.511719h-43.109376c-7.433593 0-14.03125-4.75-16.390624-11.796875l-21.679688-64.78125h119.246094l-21.675782 64.78125c-2.359374 7.046875-8.957031 11.796875-16.390624 11.796875zm0 0" fill="#eeedee"/><path d="m354.855469 152.933594 21.675781 64.78125c2.359375 7.046875 8.960938 11.796875 16.394531 11.796875h43.105469c7.433594 0 14.035156-4.75 16.394531-11.796875l21.675781-64.78125zm0 0" fill="#eeedee"/><g fill="#d6d5d6"><path d="m126.746094 152.933594-21.675782 64.78125c-2.359374 7.046875-8.960937 11.796875-16.390624 11.796875h30.394531c7.433593 0 14.035156-4.75 16.394531-11.796875l21.675781-64.78125zm0 0"/><path d="m285.226562 152.933594-21.679687 64.78125c-2.359375 7.046875-8.957031 11.796875-16.390625 11.796875h30.398438c7.429687 0 14.03125-4.75 16.390624-11.796875l21.679688-64.78125zm0 0"/><path d="m443.703125 152.933594-21.679687 64.78125c-2.359376 7.046875-8.957032 11.796875-16.390626 11.796875h30.398438c7.433594 0 14.03125-4.75 16.390625-11.796875l21.679687-64.78125zm0 0"/></g><path d="m467.433594 105.890625c1.917968-5.648437 2.976562-11.699219 2.976562-17.996094 0-30.890625-25.042968-87.894531-55.933594-87.894531-30.886718 0-55.929687 57.003906-55.929687 87.894531 0 6.296875 1.054687 12.34375 2.976563 17.996094zm0 0" fill="#fcd78b"/><path d="m399.796875 4.257812c4.679687-2.714843 9.601563-4.257812 14.679687-4.257812 30.890626 0 55.933594 57.003906 55.933594 87.894531 0 6.296875-1.054687 12.347657-2.976562 17.996094h-29.359375c1.917969-5.648437 2.976562-11.695313 2.976562-17.996094 0-25.8125-17.484375-69.851562-41.253906-83.636719zm0 0" fill="#e0c07c"/><path d="m270.421875 4.117188c-9.613281-5.488282-19.230469-5.488282-28.84375 0-23.898437 13.617187-41.507813 57.875-41.507813 83.777343 0 6.296875 1.054688 12.347657 2.976563 17.996094h105.910156c1.917969-5.648437 2.976563-11.695313 2.976563-17.996094 0-25.902343-17.613282-70.160156-41.511719-83.777343zm0 0" fill="#fcd78b"/><path d="m245.691406 4.117188c-.683594-.390626-1.371094-.753907-2.054687-1.089844 8.925781-4.367188 17.855469-4.007813 26.785156 1.089844 23.898437 13.617187 41.507813 57.875 41.507813 83.777343 0 6.296875-1.054688 12.347657-2.976563 17.996094h-24.726563c1.917969-5.648437 2.976563-11.695313 2.976563-17.996094 0-25.902343-17.609375-70.160156-41.511719-83.777343zm0 0" fill="#e0c07c"/><path d="m502.214844 105.890625h-492.429688c-5.402344 0-9.785156 4.382813-9.785156 9.785156v27.46875c0 5.40625 4.382812 9.789063 9.785156 9.789063h492.429688c5.402344 0 9.785156-4.382813 9.785156-9.789063v-27.46875c0-5.402343-4.382812-9.785156-9.785156-9.785156zm0 0" fill="#bdbdbd"/><path d="m502.214844 129.410156h-492.429688c-5.402344 0-9.785156-4.378906-9.785156-9.785156v23.519531c0 5.40625 4.382812 9.789063 9.785156 9.789063h492.429688c5.402344 0 9.785156-4.382813 9.785156-9.789063v-23.519531c0 5.40625-4.382812 9.785156-9.785156 9.785156zm0 0" fill="#b3b3b3"/></svg>