<?xml version="1.0" encoding="iso-8859-1"?>
<!-- Generator: Adobe Illustrator 19.0.0, SVG Export Plug-In . SVG Version: 6.00 Build 0)  -->
<svg version="1.1" id="Capa_1" xmlns="http://www.w3.org/2000/svg" xmlns:xlink="http://www.w3.org/1999/xlink" x="0px" y="0px"
	 viewBox="0 0 512 512" style="enable-background:new 0 0 512 512;" xml:space="preserve">
<path style="fill:#BF6015;" d="M448.299,83.699C465.399,61.5,466,42.299,466,15c0-8.101-7.8-15-16.199-15
	c-26.1,0.599-44.101,0.099-66,16C346,5.501,301,0.399,256,0.399S166,5.501,128.2,16C106.901,0.399,88.299,0,62.2,0
	C53.5,0,46,6.599,46,15.3c0,27.299,0.901,46.5,17.701,68.399c-31.8,141.899-24.3,236.29,0,344.59
	C46.901,450.19,46,469.389,46,496.99c0,8.699,8.699,15.3,17.1,15c25.8,0,43.801,0.31,65.099-15.289C166,506.901,211,512,256,512
	s90-5.099,127.8-15.298c21.299,15.599,39.901,15.289,66,15.289c8.699,0,16.199-6.601,16.199-15.3c0-27.301-0.901-46.5-17.701-68.401
	C472.599,319.989,480.099,225.599,448.299,83.699z"/>
<path style="fill:#994C0F;" d="M448.299,428.289c16.8,21.901,17.701,41.1,17.701,68.401c0,8.699-7.5,15.3-16.199,15.3
	c-26.1,0-44.702,0.31-66-15.289C346,506.901,301,512,256,512V0.399c45,0,90,5.101,127.8,15.601c21.899-15.901,39.901-15.401,66-16
	c8.4,0,16.2,6.899,16.2,15c0,27.299-0.601,46.5-17.701,68.699C480.099,225.599,472.599,319.989,448.299,428.289z"/>
<path style="fill:#FEDB41;" d="M346,301.99c-29.399,0-55.8,12.299-75,31.8v-33.3c50.7-7.5,90-50.7,90-103.5c0-8.401-6.599-15-15-15
	c-29.399,0-55.8,12.299-75,31.8v-10.501c9.6-10.199,30-35.4,30-66.299c0-39.3-33.6-69.901-35.099-71.1
	c-2.701-2.701-6.301-3.9-9.901-3.9s-7.2,1.199-9.901,3.9C244.6,67.09,211,97.69,211,136.99c0,30.899,20.4,56.1,30,66.299v10.501
	c-19.2-19.501-45.601-31.8-75-31.8c-8.401,0-15,6.599-15,15c0,52.8,39.3,96,90,103.5v33.3c-19.2-19.501-45.601-31.8-75-31.8
	c-8.401,0-15,6.599-15,15c0,52.8,39.3,96,90,103.5v16.5c0,9.899,7.5,15,15,15s15-5.101,15-15v-16.5c50.7-7.5,90-50.7,90-103.5
	C361,308.589,354.401,301.99,346,301.99z"/>
<path style="fill:#FEA832;" d="M361,316.99c0,52.8-39.3,96-90,103.5v16.5c0,9.899-7.5,15-15,15v-390c3.6,0,7.2,1.199,9.901,3.9
	C267.4,67.09,301,97.69,301,136.99c0,30.899-20.4,56.1-30,66.299v10.501c19.2-19.501,45.601-31.8,75-31.8c8.401,0,15,6.599,15,15
	c0,52.8-39.3,96-90,103.5v33.3c19.2-19.501,45.601-31.8,75-31.8C354.401,301.99,361,308.589,361,316.99z"/>
<g>
</g>
<g>
</g>
<g>
</g>
<g>
</g>
<g>
</g>
<g>
</g>
<g>
</g>
<g>
</g>
<g>
</g>
<g>
</g>
<g>
</g>
<g>
</g>
<g>
</g>
<g>
</g>
<g>
</g>
</svg>
