<?xml version="1.0" encoding="iso-8859-1"?>
<!-- Generator: Adobe Illustrator 19.0.0, SVG Export Plug-In . SVG Version: 6.00 Build 0)  -->
<svg version="1.1" id="Layer_1" xmlns="http://www.w3.org/2000/svg" xmlns:xlink="http://www.w3.org/1999/xlink" x="0px" y="0px"
	 viewBox="0 0 511.989 511.989" style="enable-background:new 0 0 511.989 511.989;" xml:space="preserve">
<path style="fill:#EFCADB;" d="M181.403,431.959c-0.75,0-44.89-0.219-88.171-12.531c-24.749-7.047-44.312-16.576-58.107-28.342
	c-16.453-14.031-24.453-30.75-24.453-51.125c0-59.107,29-80.139,65.718-106.748c26.968-19.546,57.374-41.577,79.545-82.139h51.077
	c21.688,40.077,51.968,61.874,78.842,81.201c37.03,26.64,66.28,47.671,66.28,107.607c0,20.359-7.984,37.062-24.422,51.094
	c-13.797,11.766-33.327,21.311-58.045,28.373C226.324,431.724,182.091,431.959,181.403,431.959z"/>
<polygon style="fill:#A0D468;" points="213.387,140.418 213.387,101.357 149.403,58.702 149.403,140.418 "/>
<g>
	<path style="fill:#E2B7CC;" d="M362.79,339.883c0-92.279-66.171-101.951-117.092-154.184c-1.266-1.625-2.047-2.578-2.219-2.781
		l-0.25,0.203c-10.984-11.687-21.187-25.483-29.749-42.702h-63.983c-8.672,17.172-18.858,31-29.78,42.718l-0.266-0.219
		c-0.188,0.203-1.031,1.234-2.391,3C65.717,238.933,0,248.558,0,339.961c0,102.67,181.402,102.67,181.402,102.67
		c0.188,0,32.452-0.047,69.701-7.766l0.031,0.031c0.016-0.016,0.031-0.031,0.031-0.047C302.29,424.24,362.79,399.164,362.79,339.883
		z M21.328,339.961c0-24.734,5.359-43.498,16.875-59.076c10.905-14.734,26.452-26,44.452-39.031
		c1.422-1.031,2.844-2.078,4.281-3.109c-3.016,7.156-5.844,14.891-8.328,23.093c-8.312,27.547-10.781,54.779-7.312,80.951
		c3.016,22.859,10.562,44.859,22.499,65.688c-22.062-6.516-39.437-15.062-51.654-25.422
		C28.141,371.164,21.328,357.07,21.328,339.961z M123.826,415.537c-17.234-23.467-27.766-48.701-31.328-75.123
		c-3.108-23.062-0.983-47.186,6.328-71.732c10.297-34.578,28.156-60.42,34.594-69.014c11.202-11.734,20.702-24.25,28.733-37.921
		h38.608c8.703,14.952,18.5,27.312,28.78,37.968c6.469,8.656,24.281,34.468,34.562,68.967c7.312,24.547,9.438,48.67,6.328,71.732
		c-3.562,26.391-14.078,51.609-31.281,75.045c-31.327,5.703-57.436,5.844-57.748,5.844
		C181.075,421.303,155.153,421.209,123.826,415.537z M320.899,382.773c-12.188,10.422-29.577,19.031-51.717,25.609
		c11.905-20.812,19.437-42.781,22.452-65.594c3.453-26.172,1-53.404-7.312-80.951c-2.547-8.437-5.484-16.359-8.578-23.703
		c1.297,0.938,2.594,1.875,3.875,2.797c18.093,13.016,33.733,24.265,44.733,39.109c11.672,15.75,17.109,34.748,17.109,59.842
		C341.462,356.883,334.743,370.914,320.899,382.773z"/>
	<path style="fill:#E2B7CC;" d="M224.152,431.959h-85.327c-5.89,0-10.655,4.781-10.655,10.672s4.766,10.656,10.655,10.656h85.327
		c5.89,0,10.655-4.766,10.655-10.656S230.042,431.959,224.152,431.959z"/>
</g>
<path style="fill:#FFDCE9;" d="M256.073,335.976c0,0,56.592,106.654,146.934,106.654s108.982-106.654,108.982-106.654H256.073z
	 M446.022,408.43c-12.531,8.654-26.594,12.873-43.016,12.873c-16.78,0-33.687-4.625-50.248-13.732
	c-13.969-7.672-27.75-18.531-40.969-32.266c-5.859-6.094-11.109-12.219-15.671-18h187.245c-2.594,6.562-5.968,13.844-10.296,21.047
	C465.381,391.211,456.288,401.32,446.022,408.43z"/>
<g>
	<path style="fill:#E2B7CC;" d="M192.152,421.303c0,5.891-4.766,10.656-10.655,10.656c-5.891,0-10.672-4.766-10.672-10.656
		s4.781-10.672,10.672-10.672C187.387,410.631,192.152,415.412,192.152,421.303z"/>
	<path style="fill:#E2B7CC;" d="M224.152,421.303c0,5.891-4.781,10.656-10.672,10.656s-10.656-4.766-10.656-10.656
		s4.766-10.672,10.656-10.672S224.152,415.412,224.152,421.303z"/>
	<path style="fill:#E2B7CC;" d="M160.153,421.303c0,5.891-4.766,10.656-10.656,10.656s-10.672-4.766-10.672-10.656
		s4.781-10.672,10.672-10.672S160.153,415.412,160.153,421.303z"/>
</g>
<path style="fill:#FFDCE9;" d="M256.151,336.133c-5.578,1.328-10.203,3.578-13.812,6.75c-4.969,4.344-7.094,9.734-7.469,13.531
	c0,0.047,0,0.109,0,0.156c-0.016,0.125-0.031,0.25-0.047,0.375h0.016c0,0.203-0.031,0.406-0.031,0.609
	c0,5.891,4.781,10.672,10.672,10.672c5.281,0,9.656-3.844,10.5-8.875c0.609-0.891,3.938-3.156,12.641-3.344
	C261.057,345.086,256.776,337.273,256.151,336.133z"/>
<path style="fill:#F5F7FA;" d="M403.007,421.443c-62.607,0-108.747-56.951-127.841-85.311h223.167
	c-2.891,9.703-8.016,23.797-16.406,37.688C462.834,405.43,436.288,421.443,403.007,421.443z"/>
<g>
</g>
<g>
</g>
<g>
</g>
<g>
</g>
<g>
</g>
<g>
</g>
<g>
</g>
<g>
</g>
<g>
</g>
<g>
</g>
<g>
</g>
<g>
</g>
<g>
</g>
<g>
</g>
<g>
</g>
</svg>
