<?xml version="1.0" encoding="iso-8859-1"?>
<!-- Generator: Adobe Illustrator 19.0.0, SVG Export Plug-In . SVG Version: 6.00 Build 0)  -->
<svg xmlns="http://www.w3.org/2000/svg" xmlns:xlink="http://www.w3.org/1999/xlink" version="1.1" id="Layer_1" x="0px" y="0px" viewBox="0 0 490 490" style="enable-background:new 0 0 490 490;" xml:space="preserve" width="512" height="512">
<g>
	<path style="fill:#58B741;" d="M279.566,34.559v37.718h-69.129V34.559C210.438,15.479,225.917,0,244.996,0h0.011   c4.272,0,8.356,0.771,12.132,2.202C270.241,7.112,279.566,19.751,279.566,34.559z"/>
	<path style="fill:#70D65B;" d="M279.566,34.559v37.718h-44.853V34.559c0-9.545,3.875-18.177,10.129-24.43   c3.457-3.457,7.641-6.187,12.297-7.927C270.241,7.112,279.566,19.751,279.566,34.559z"/>
	<path style="fill:#E6E6E6;" d="M485.805,361.379c0,121.47-72.11,121.15-165.51,115.95c-23.98-1.33-49.36-2.99-75.29-2.99h-0.48   c-9.95,0.01-19.82,0.26-29.55,0.64c-114.31,4.47-210.78,26.9-210.78-113.6c0-80.05,102.64-261.22,221.62-279.39   c6.2-0.95,12.44-1.46,18.71-1.48h0.48c30.86,0,60.95,11.62,88.82,30.43C420.565,169.449,485.805,297.549,485.805,361.379z"/>
	<path style="fill:#CCCCCC;" d="M166.807,477.492c-91.995,5.031-162.61,4.095-162.61-116.117   c0-62.501,62.578-186.655,146.646-246.733c-36.177,64.791-60.31,167.641-60.31,222.689   C90.533,400.107,121.932,454.042,166.807,477.492z"/>
	<path style="fill:#CCCCCC;" d="M396.255,337.329c0,62.64-31.25,116.46-75.96,140c-23.98-1.33-49.36-2.99-75.29-2.99h-0.48   c-9.95,0.01-19.82,0.26-29.55,0.64c-42.42-24.65-71.7-77.02-71.7-137.65c0-65.66,34.35-199.39,82.54-255.34   c6.2-0.95,12.44-1.46,18.71-1.48h0.48c30.86,0,60.95,11.62,88.82,30.43C371.185,175.459,396.255,281.239,396.255,337.329z"/>
	<path style="fill:#E6E6E6;" d="M371.497,337.331c0-84.317-56.633-280.857-126.493-280.857s-126.493,196.54-126.493,280.857   S175.144,490,245.005,490S371.497,421.648,371.497,337.331z"/>
	<path style="fill:#CCCCCC;" d="M244.163,489.988c-69.47-0.528-125.651-68.677-125.651-152.657   c0-84.322,56.633-280.852,126.488-280.852c-35.902,0-65,196.53-65,280.852C179.999,420.992,208.646,488.931,244.163,489.988z"/>
</g>















</svg>
