<svg viewBox="0 -36 477.79671 477" xmlns="http://www.w3.org/2000/svg"><path d="m425.546875 24.929688c-16.976563-9.441407-37.484375-10.042969-54.988281-1.609376-17.5 8.429688-29.8125 24.84375-33.011719 44.007813l-3.582031 21.601563-11.734375 52.796874c-2.714844 12.210938-13.527344 20.90625-26.035157 20.9375h-14.734374c-9.382813-.023437-18.074219-4.941406-22.921876-12.976562l-3.765624-6.28125c-7.75-12.839844-21.640626-20.703125-36.640626-20.742188h-34.976562c-6.933594.019532-13.757812 1.71875-19.886719 4.953126l3.726563 7.078124-65.953125 81.710938-5.902344-5.40625c-4.320313 4.8125-10.460937 7.589844-16.929687 7.664062h-25.429688c-11.90625-.023437-23.171875 5.386719-30.59375 14.695313l-13.597656 16.96875c-7.238282 9.03125-10.101563 20.804687-7.824219 32.152344l.933594 4.664062c3.253906 15.933594 15.96875 28.230469 32 30.953125l4.800781.796875c9.757812 1.640625 17.402344 9.285157 19.039062 19.042969 3.105469 18.917969 19.484376 32.785156 38.65625 32.726562h19.402344c8.332032.015626 16.449219-2.640624 23.160156-7.574218l10.230469-7.515625-4.726562-6.445313 77.535156-26.464844 40.800781-51.144531 1.472656 7.855469 64.488282-12.085938c31.839844-5.953124 62.421875-17.34375 90.398437-33.671874 36.386719-21.347657 58.769531-60.351563 58.839844-102.539063v-17.351563c-.003906-36.890624-20.003906-70.878906-52.25-88.796874zm0 0" fill="#ebc898"/><path d="m166.875 72.929688c-8.226562-9.074219-19.902344-14.253907-32.148438-14.265626h-17.859374c-12.25-.003906-23.929688 5.179688-32.148438 14.261719-8.222656 9.082031-12.214844 21.21875-10.992188 33.410157l8.925782 89.28125c2.222656 22.160156 20.871094 39.035156 43.144531 39.035156s40.921875-16.875 43.144531-39.035156l8.925782-89.28125c1.210937-12.1875-2.78125-24.320313-10.992188-33.40625zm0 0" fill="#edcd97"/><path d="m311.132812 307.710938c-1.621093-10.417969-7.644531-19.632813-16.535156-25.304688l-41.097656-26.140625c-16.714844-10.605469-38.828125-6.035156-49.96875 10.328125s-7.289062 38.613281 8.707031 50.277344l14.398438 10.457031 4.695312-6.464844 33.167969 22.113281-2.398438 7.640626c3.554688 1.105468 7.257813 1.671874 10.984376 1.671874 10.820312 0 21.078124-4.808593 28-13.128906l1.933593-2.328125c6.765625-8.089843 9.722657-18.699219 8.113281-29.121093zm0 0" fill="#ebc898"/><path d="m266.171875 331.71875-4.800781-4.796875c-13.066406-13.175781-32.492188-17.761719-50.070313-11.816406-11.835937 3.976562-24.898437.890625-33.703125-7.960938l-6.113281-6.113281c-11.960937-11.960938-31.351563-11.960938-43.3125 0s-11.960937 31.351562 0 43.3125l51.570313 51.578125c3.925781 3.917969 8.84375 6.703125 14.230468 8.046875 4.707032 1.183594 9.546875 1.78125 14.398438 1.785156 14.273437-.007812 28.074218-5.117187 38.914062-14.402344l17.160156-14.71875c6.476563-5.554687 10.34375-13.554687 10.671876-22.082031.328124-8.523437-2.917969-16.800781-8.953126-22.832031zm0 0" fill="#ebc898"/><g fill="#dbb47d"><path d="m174.707031 379.121094-.871093-.457032c-1.933594-.960937-3.363282-2.703124-3.925782-4.789062-.566406-2.082031-.210937-4.308594.972656-6.113281 12.199219-18.257813 32.734376-29.183594 54.691407-29.097657h4.703125c4.152344 0 7.519531 3.367188 7.519531 7.519532v.960937c0 4.152344-3.367187 7.519531-7.519531 7.519531h-4.703125c-16.597657-.0625-32.128907 8.179688-41.378907 21.960938-2.089843 3.089844-6.144531 4.15625-9.488281 2.496094zm0 0"/><path d="m141.460938 335.6875 5.363281-5.363281c2.9375-2.9375 7.695312-2.9375 10.632812 0l.679688.679687c2.9375 2.9375 2.9375 7.695313 0 10.632813l-5.363281 5.363281c-2.9375 2.9375-7.699219 2.9375-10.632813 0l-.679687-.679688c-2.9375-2.933593-2.9375-7.695312 0-10.632812zm0 0"/><path d="m235.3125 279.96875 7.65625-11.488281c2.304688-3.453125 6.972656-4.386719 10.429688-2.085938l.800781.535157c3.453125 2.300781 4.386719 6.972656 2.085937 10.425781l-7.660156 11.488281c-2.304688 3.457031-6.972656 4.390625-10.429688 2.085938l-.796874-.53125c-3.457032-2.304688-4.390626-6.972657-2.085938-10.429688zm0 0"/><path d="m259.3125 295.972656 7.660156-11.488281c2.304688-3.457031 6.972656-4.390625 10.429688-2.085937l.796875.53125c3.457031 2.304687 4.390625 6.972656 2.085937 10.429687l-7.660156 11.488281c-2.304688 3.457032-6.972656 4.390625-10.425781 2.085938l-.800781-.53125c-3.457032-2.304688-4.390626-6.972656-2.085938-10.429688zm0 0"/><path d="m94.277344 362.664062h-.960938c-4.152344 0-7.519531-3.367187-7.519531-7.519531v-22.792969c.035156-33.542968-9.207031-66.445312-26.703125-95.0625-2.167969-3.441406-1.214844-7.976562 2.152344-10.257812l.796875-.527344c1.6875-1.136718 3.761719-1.542968 5.75-1.125 1.988281.417969 3.726562 1.625 4.8125 3.339844 19.121093 31.183594 29.226562 67.054688 29.191406 103.632812v22.792969c0 4.152344-3.367187 7.519531-7.519531 7.519531zm0 0"/><path d="m238.042969 258.664062-.941407-.121093c-4.011718-.535157-6.890624-4.136719-6.527343-8.167969 2.53125-36.117188-9.445313-71.753906-33.273438-99.015625l-8.566406-9.800781c-2.742187-3.125-2.425781-7.878906.703125-10.613282l.71875-.625c1.5-1.316406 3.460938-1.980468 5.449219-1.847656 1.992187.132813 3.847656 1.050782 5.160156 2.550782l8.574219 9.800781c26.738281 30.570312 40.117187 70.574219 37.160156 111.078125-.183594 2.035156-1.191406 3.90625-2.785156 5.183594-1.597656 1.277343-3.644532 1.847656-5.671875 1.578124zm0 0"/><path d="m362.964844 100.417969c-4.8125-.015625-9.617188-.285157-14.398438-.800781-2.078125-.203126-3.980468-1.246094-5.261718-2.894532-1.28125-1.648437-1.824219-3.75-1.507813-5.8125l.152344-.941406c.710937-3.984375 4.417969-6.714844 8.429687-6.207031 26.753906 2.816406 53.675782-3.402344 76.480469-17.664063l16.363281-10.226562c1.691406-1.070313 3.746094-1.417969 5.699219-.96875 1.953125.453125 3.644531 1.664062 4.699219 3.371094l.511718.796874c1.066407 1.699219 1.410157 3.75.960938 5.699219-.449219 1.953125-1.660156 3.644531-3.359375 4.703125l-16.363281 10.222656c-21.710938 13.5625-46.804688 20.742188-72.40625 20.722657zm0 0"/><path d="m459.492188 118.871094c3.714843-1.855469 8.230468-.351563 10.089843 3.359375l.429688.867187c1.859375 3.710938.355469 8.226563-3.359375 10.085938l-38.464844 19.199218c-18.921875 9.476563-39.796875 14.40625-60.957031 14.402344-5.699219 0-11.394531-.351562-17.050781-1.058594l-17.910157-2.238281c-4.125-.515625-7.046875-4.277343-6.527343-8.398437l.109374-.945313c.515626-4.125 4.277344-7.050781 8.402344-6.535156l7.160156.894531c29.191407 3.648438 58.8125-1.191406 85.328126-13.9375zm0 0"/><path d="m323.804688 254.054688c-7.273438-21.351563-8.929688-22.535157-23.265626-40.199219-2.558593-3.15625-2.167968-7.773438.890626-10.457031l6.605468-5.734376.402344.496094c19.839844 24.800782 21.824219 25.320313 30.511719 50.742188.648437 1.902344.515625 3.980468-.371094 5.78125-.886719 1.800781-2.449219 3.175781-4.347656 3.820312l-.914063.304688c-3.9375 1.285156-8.175781-.832032-9.511718-4.753906zm0 0"/><path d="m365.585938 203.101562.425781-.871093c1.824219-3.730469 6.332031-5.273438 10.058593-3.445313l35.570313 17.421875c3.730469 1.828125 5.273437 6.332031 3.449219 10.0625l-.425782.871094c-1.828124 3.726563-6.332031 5.269531-10.0625 3.445313l-35.570312-17.425782c-3.730469-1.824218-5.273438-6.328125-3.445312-10.058594zm0 0"/><path d="m125.796875 161.535156c-11.421875-.003906-22.625-3.113281-32.417969-8.992187l-5.253906-3.152344c-3.5625-2.136719-4.714844-6.757813-2.578125-10.320313l.496094-.796874c2.136719-3.566407 6.757812-4.722657 10.320312-2.585938l17.808594 10.695312c7.15625 4.296876 16.101563 4.296876 23.257813 0l17.800781-10.6875c3.558593-2.136718 8.179687-.984374 10.316406 2.578126l.496094.796874c2.140625 3.558594.988281 8.179688-2.574219 10.3125l-5.257812 3.152344c-9.789063 5.882813-20.992188 8.996094-32.414063 9zm0 0"/><path d="m143.894531 121.0625c-11.015625 2.972656-22.628906 2.890625-33.601562-.230469l-13.296875-3.816406c-3.992188-1.136719-6.308594-5.292969-5.175782-9.289063l.265626-.925781c1.136718-3.996093 5.292968-6.3125 9.285156-5.175781l13.304687 3.78125c11.085938 3.160156 22.945313 2.128906 33.320313-2.886719 3.335937-1.570312 7.320312-.4375 9.335937 2.648438l.535157.800781c1.203124 1.796875 1.574218 4.023438 1.023437 6.113281-.550781 2.085938-1.976563 3.839844-3.910156 4.804688-3.554688 1.742187-7.269531 3.140625-11.085938 4.175781zm0 0"/><path d="m117.316406 178.664062h.960938c4.152344 0 7.519531 3.367188 7.519531 7.519532v.960937c0 4.152344-3.367187 7.519531-7.519531 7.519531h-.960938c-4.152344 0-7.519531-3.367187-7.519531-7.519531v-.960937c0-4.152344 3.367187-7.519532 7.519531-7.519532zm0 0"/><path d="m29.316406 266.664062h.960938c4.152344 0 7.519531 3.367188 7.519531 7.519532v.960937c0 4.152344-3.367187 7.519531-7.519531 7.519531h-.960938c-4.152344 0-7.519531-3.367187-7.519531-7.519531v-.960937c0-4.152344 3.367187-7.519532 7.519531-7.519532zm0 0"/></g><path d="m261.339844 326.894531 4.800781 4.800781c5.394531 5.46875 8.535156 12.765626 8.800781 20.441407 5.460938-.324219 10.785156-1.867188 15.574219-4.511719-1.132813-6.027344-4.050781-11.574219-8.367187-15.929688l-4.800782-4.800781c-11.164062-11.222656-27.101562-16.296875-42.703125-13.597656 10.105469 1.617187 19.445313 6.375 26.695313 13.597656zm0 0" fill="#c9ab82"/><path d="m128.140625 344.320312c-11.945313-11.96875-11.945313-31.34375 0-43.3125 3.789063-3.742187 8.5-6.417968 13.65625-7.757812-13.378906-3.710938-27.578125 2.074219-34.550781 14.082031-6.972656 12.007813-4.960938 27.207031 4.894531 36.988281l21.761719 21.769532c1.6875-.882813 3.308594-1.886719 4.855468-3l4.695313-3.449219zm0 0" fill="#c9ab82"/><path d="m303.902344 168.808594-2.167969 5.191406c-1.699219 4.082031-5.011719 7.277344-9.152344 8.828125-4.136719 1.554687-8.734375 1.328125-12.699219-.628906l-35.199218-17.367188c-4.605469-2.273437-7.839844-6.621093-8.695313-11.6875l-4.742187-28.160156c-.96875-.3125-1.882813-.800781-2.867188-1.015625l7.609375 45.175781c.855469 5.066407 4.089844 9.414063 8.695313 11.6875l35.199218 17.367188c3.964844 1.957031 8.5625 2.183593 12.699219.628906 4.140625-1.550781 7.453125-4.746094 9.152344-8.828125l2.167969-5.191406c3.714844-9.171875 6.703125-18.621094 8.925781-28.265625-1.785156 1.4375-3.734375 2.65625-5.808594 3.632812-1.015625 2.921875-2.023437 5.929688-3.117187 8.632813zm0 0" fill="#c9ab82"/><path d="m279.882812 182.199219c3.96875 1.957031 8.566407 2.1875 12.707032.632812 4.140625-1.550781 7.453125-4.75 9.152344-8.832031l2.160156-5.191406c14.308594-34.351563 19.78125-87.738282 15.847656-125.007813-1.289062-15.214843-9.828125-28.878906-22.9375-36.703125-13.109375-7.824218-29.1875-8.855468-43.191406-2.769531l-5.425782 2.335937c-20.617187 8.925782-32.230468 31.011719-27.902343 53.054688l15.695312 93.425781c.855469 5.066407 4.089844 9.414063 8.695313 11.6875zm0 0" fill="#ebc898"/><path d="m223.398438 69.335938c-1.269532-2.113282-1.394532-4.722657-.335938-6.945313 1.054688-2.226563 3.160156-3.777344 5.597656-4.125l2.527344.0625c9.222656.15625 18.335938-2.003906 26.503906-6.289063 16.378906-9.269531 35.332032-12.941406 53.984375-10.453124 2.027344.308593 3.839844 1.441406 5.007813 3.128906 1.167968 1.6875 1.589844 3.78125 1.167968 5.789062l-.191406.9375c-.84375 3.929688-4.589844 6.53125-8.566406 5.941406-19.140625-2.378906-38.550781.984376-55.777344 9.65625-5.433594 2.601563-11.253906 4.308594-17.230468 5.058594l-5.3125.796875c-2.953126.417969-5.867188-.988281-7.375-3.558593zm0 0" fill="#dbb47d"/><path d="m238.789062 92.65625c-1.078124-2.160156-1.078124-4.699219 0-6.859375 1.074219-2.160156 3.105469-3.6875 5.480469-4.125l10.167969-1.878906c3.414062-.699219 6.746094-1.746094 9.941406-3.128907 12.570313-5.179687 26.402344-6.492187 39.722656-3.777343 2.113282.4375 3.941407 1.753906 5.027344 3.617187 1.089844 1.867188 1.332032 4.105469.667969 6.160156l-.304687.910157c-1.15625 3.550781-4.773438 5.6875-8.441407 4.976562-9.898437-2.03125-20.175781-1.171875-29.597656 2.480469-3.132813 1.300781-6.382813 2.304688-9.703125 3l-14.664062 2.703125c-3.367188.640625-6.75-1.023437-8.296876-4.078125zm0 0" fill="#dbb47d"/><path d="m183.15625 122.664062c-2.34375.027344-4.679688.246094-6.984375.664063l-7.199219 72.289063c-1.863281 19.089843-16.089844 34.667968-34.9375 38.246093 2.558594.503907 5.15625.769531 7.761719.800781 22.304687.074219 41-16.84375 43.144531-39.046874l7.296875-72.953126zm0 0" fill="#c9ab82"/></svg>