<svg height="512pt" viewBox="0 -3 512.00592 512" width="512pt" xmlns="http://www.w3.org/2000/svg"><path d="m346.03125 66.054688-17.46875 73.714843 88.296875-44.617187 14.671875-44.019532c1.625-4.871093-.121094-10.238281-4.296875-13.234374l-50.015625-35.707032c-6.316406-4.515625-15.199219-1.738281-17.820312 5.5625l-12.238282 34.058594-18.597656 36.8125c4.175781 2.988281 19.09375-17.445312 17.46875-12.570312zm0 0" fill="#0d491c"/><path d="m460.867188 80.484375-121.152344 37.046875-37.359375 92.121094 113.558593-47.980469c4.875-1.625 10.246094.121094 13.234376 4.304687l39.910156-.726562 35.195312-12.636719c7.304688-2.628906 10.082032-11.507812 5.566406-17.820312l-35.71875-50c-2.988281-4.195313-8.363281-5.933594-13.234374-4.308594zm0 0" fill="#126329"/><path d="m329.820312 200.917969 37.054688-134.863281c1.625-4.875-.121094-10.238282-4.296875-13.234376l-50.003906-35.71875c-6.3125-4.515624-15.199219-1.738281-17.816407 5.5625l-69.386718 189.363282zm0 0" fill="#1a823a"/><path d="m489.917969 194.460938-35.707031-50c-2.988282-4.183594-8.351563-5.929688-13.234376-4.296876l-215.605468 71.863282-4.910156 4.910156c-13.207032 13.207031-26.519532 25.726562-40.40625 38.234375 11.050781 5.074219 13.039062 20.363281 6.8125 29.804687 11.566406 9.164063 24.230468 17.21875 35.867187 25.402344 3.902344 2.753906 7.519531 5.703125 11.066406 8.699219 1.347657-.269531 2.777344-.425781 4.316407-.425781 2.394531 0 4.472656.453125 6.402343 1.089844 3.757813.640624 6.621094 2.089843 8.988281 4.289062 6.140626-6.804688 12.507813-13.398438 19.007813-19.890625 14.816406-14.8125 32.679687-26.222656 52.359375-33.429687l159.480469-58.429688c7.300781-2.621094 10.070312-11.496094 5.5625-17.820312zm0 0" fill="#23a24d"/><path d="m48.019531 353.550781c-9.320312 5.273438-17.785156 12.648438-24.695312 22.097657-20.175781 27.585937-19.3125 66.222656 1.90625 93.023437 29.289062 37 83.21875 39.316406 115.59375 6.945313 4.246093-4.246094 7.894531-8.867188 10.953125-13.75 30.914062-49.46875 64.316406-97.328126 103.792968-140.070313l-70.859374-70.894531c-42.054688 38.808594-86.960938 74.492187-136.691407 102.648437zm0 0" fill="#f2ecbf"/><path d="m53.242188 428.382812c-3.992188 0-7.597657-2.75-8.515626-6.8125-2.699218-11.992187-.210937-24.386718 6.832032-34.023437 3.789062-5.179687 8.394531-9.320313 13.6875-12.308594 11.554687-6.542969 23.261718-13.6875 34.785156-21.234375 4.035156-2.648437 9.449219-1.511718 12.097656 2.523438 2.636719 4.035156 1.511719 9.453125-2.523437 12.089844-11.839844 7.757812-23.875 15.101562-35.765625 21.828124-3.125 1.765626-5.878906 4.265626-8.191406 7.417969-4 5.476563-5.460938 12.910157-3.886719 19.871094 1.054687 4.710937-1.898438 9.382813-6.605469 10.441406-.628906.136719-1.273438.207031-1.914062.207031zm0 0" fill="#c6be91"/><g fill="#be7c6d"><path d="m8.738281 507.019531c-2.238281 0-4.472656-.855469-6.175781-2.558593-3.417969-3.417969-3.417969-8.9375 0-12.351563l34.941406-34.941406c3.40625-3.417969 8.945313-3.417969 12.351563 0 3.414062 3.414062 3.414062 8.933593 0 12.351562l-34.941407 34.941407c-1.703124 1.703124-3.941406 2.558593-6.175781 2.558593zm0 0"/><path d="m8.738281 472.078125c-2.238281 0-4.472656-.855469-6.175781-2.558594-3.417969-3.417969-3.417969-8.9375 0-12.351562l17.46875-17.472657c3.40625-3.414062 8.945312-3.414062 12.351562 0 3.417969 3.417969 3.417969 8.9375 0 12.351563l-17.46875 17.472656c-1.703124 1.703125-3.941406 2.558594-6.175781 2.558594zm0 0"/><path d="m43.679688 507.019531c-2.238282 0-4.472657-.855469-6.175782-2.558593-3.417968-3.417969-3.417968-8.9375 0-12.351563l17.46875-17.472656c3.40625-3.414063 8.945313-3.414063 12.351563 0 3.417969 3.414062 3.417969 8.9375 0 12.351562l-17.46875 17.472657c-1.703125 1.703124-3.941407 2.558593-6.175781 2.558593zm0 0"/></g></svg>