<svg height="464pt" viewBox="-32 0 464 464.36226" width="464pt" xmlns="http://www.w3.org/2000/svg"><path d="m32.179688 256.363281h112c17.675781 0 32 14.324219 32 32v144c0 17.671875-14.324219 32-32 32h-112c-17.671876 0-32-14.328125-32-32v-144c0-17.675781 14.328124-32 32-32zm0 0" fill="#ffda44"/><path d="m195.542969 76.28125c3.484375 2.4375 5.855469 6.160156 6.589843 10.347656.734376 4.1875-.226562 8.496094-2.671874 11.972656l-4.558594 6.5625-18.402344 26.15625-4.558594 6.5625c-5.105468 6.785157-14.621094 8.402344-21.679687 3.683594-7.058594-4.722656-9.203125-14.132812-4.878907-21.445312.074219-.203125.183594-.390625.316407-.558594l27.601562-39.359375c5.070313-7.207031 15.011719-8.960937 22.242188-3.921875zm0 0" fill="#df850f"/><path d="m178.5 44.84375c3.5 2.425781 5.878906 6.148438 6.617188 10.339844.734374 4.191406-.234376 8.507812-2.695313 11.980468l-9.121094 13.039063-27.601562 39.359375c-.132813.167969-.242188.355469-.316407.558594l-8.800781 12.5625c-5.082031 7.246094-15.074219 9-22.320312 3.917968-7.246094-5.082031-9-15.074218-3.921875-22.320312l45.921875-65.519531c5.070312-7.207031 15.011719-8.960938 22.238281-3.917969zm0 0" fill="#ff9811"/><path d="m168.339844 26.441406c.003906 3.300782-1.03125 6.519532-2.957032 9.199219l-9.121093 13.121094-45.921875 65.519531-9.199219 13.121094c-5.269531 6.601562-14.761719 7.96875-21.683594 3.125-6.917969-4.847656-8.878906-14.234375-4.476562-21.445313l9.121093-13.121093 45.917969-65.519532 9.203125-13.121094c3.992188-5.722656 11.238282-8.195312 17.902344-6.109374 6.660156 2.085937 11.199219 8.25 11.214844 15.230468zm0 0" fill="#df850f"/><path d="m132.902344 21.242188c-.007813 3.289062-1.011719 6.496093-2.882813 9.199218l-45.917969 65.519532c-3.203124 4.886718-8.8125 7.636718-14.636718 7.179687-5.820313-.457031-10.933594-4.050781-13.332032-9.378906-2.398437-5.324219-1.707031-11.535157 1.808594-16.199219l9.121094-13.039062 27.597656-39.359376c.136719-.171874.246094-.359374.320313-.5625l8.800781-12.558593c4.003906-5.738281 11.269531-8.207031 17.941406-6.101563 6.667969 2.109375 11.195313 8.304688 11.179688 15.300782zm0 0" fill="#ff9811"/><path d="m97.542969 16.042969c.015625 3.042969-.875 6.023437-2.5625 8.558593-.074219.203126-.183594.390626-.320313.5625l-27.597656 39.359376c-3.203125 4.882812-8.8125 7.636718-14.636719 7.175781-5.824219-.457031-10.933593-4.050781-13.332031-9.375-2.402344-5.328125-1.707031-11.535157 1.808594-16.203125l27.519531-39.277344c4.003906-5.738281 11.269531-8.207031 17.9375-6.101562 6.671875 2.109374 11.199219 8.304687 11.183594 15.300781zm0 0" fill="#df850f"/><path d="m391.78125 251.320312c.011719 5.980469-3.308594 11.464844-8.613281 14.222657-5.300781 2.761719-11.695313 2.335937-16.585938-1.101563l-190.082031-133.121094 18.402344-26.15625 190 133.039063c4.300781 2.984375 6.871094 7.882813 6.878906 13.117187zm0 0" fill="#b39a7c"/><path d="m376.179688 384.363281 24 40-24 40h-48l-24-40 24-40zm0 0" fill="#ffde59"/><path d="m304.179688 344.363281 24 40-24 40h-48l-24-40 24-40zm0 0" fill="#ffe682"/><path d="m376.179688 304.363281 24 40-24 40h-48l-24-40 24-40zm0 0" fill="#ffda44"/><path d="m.179688 304.363281h176v112h-176zm0 0" fill="#ff9811"/><path d="m40.179688 208.363281h96c13.257812 0 24 10.746094 24 24 0 13.253907-10.742188 24-24 24h-96c-13.253907 0-24-10.746093-24-24 0-13.253906 10.746093-24 24-24zm0 0" fill="#806749"/><g fill="#ffda44"><path d="m24.179688 112.363281h16v16h-16zm0 0"/><path d="m24.179688 152.363281h16v16h-16zm0 0"/><path d="m72.179688 160.363281h16v16h-16zm0 0"/><path d="m120.179688 160.363281h16v16h-16zm0 0"/><path d="m96.179688 176.363281h16v16h-16zm0 0"/><path d="m48.179688 176.363281h16v16h-16zm0 0"/></g><path d="m40.179688 216.363281h16c4.417968 0 8 3.582031 8 8s-3.582032 8-8 8h-16c-4.417969 0-8-3.582031-8-8s3.582031-8 8-8zm0 0" fill="#9c8971"/><path d="m28.179688 312.363281c6.628906 0 12 5.371094 12 12v24c0 6.625-5.371094 12-12 12-6.625 0-12-5.375-12-12v-24c0-6.628906 5.375-12 12-12zm0 0" fill="#ffaf46"/></svg>