<svg height="503pt" viewBox="0 -24 503.97728 503" width="503pt" xmlns="http://www.w3.org/2000/svg"><path d="m321.257812 120.488281 5.039063 17.015625c-78.71875 10-142.320313 77.550782-142.320313 158.992188 0 11.03125 2.5625 28.230468 4.722657 38.621094l-20.722657-1.34375c-39.917968-4.488282-82.078124-19.605469-115.4375-52.96875-83.441406-83.4375-42.082031-211.832032-43.691406-258.636719l14.167969-14.167969c46.808594 1.605469 172.320313-36.953125 255.832031 46.558594l1.363282 1.359375c19.6875 19.6875 32.636718 41.6875 41.046874 64.570312zm0 0" fill="#edab37"/><path d="m503.976562 296.488281c0 88.363281-71.632812 160-160 160-88.363281 0-160-71.636719-160-160 0-88.367187 71.636719-160 160-160 88.367188 0 160 71.632813 160 160zm0 0" fill="#f6bb42"/><path d="m487.976562 296.488281c0 79.527344-64.46875 144-144 144-79.527343 0-144-64.472656-144-144 0-79.53125 64.472657-144 144-144 79.53125 0 144 64.46875 144 144zm0 0" fill="#ffce54"/><path d="m120.21875 292.488281c-2.210938 0-4.042969-1.792969-4.042969-4 0-2.210937 1.753907-4 3.953125-4h.089844c2.199219 0 4 1.789063 4 4 0 2.207031-1.792969 4-4 4zm0 0" fill="#f6bb42"/><path d="m104.21875 276.488281c-2.210938 0-4.042969-1.792969-4.042969-4 0-2.210937 1.753907-4 3.953125-4h.089844c2.199219 0 4 1.789063 4 4 0 2.207031-1.792969 4-4 4zm0 0" fill="#f6bb42"/><path d="m136.21875 276.488281c-2.210938 0-4.042969-1.792969-4.042969-4 0-2.210937 1.753907-4 3.953125-4h.089844c2.199219 0 4 1.789063 4 4 0 2.207031-1.792969 4-4 4zm0 0" fill="#f6bb42"/><path d="m136.21875 308.488281c-2.210938 0-4.042969-1.792969-4.042969-4 0-2.210937 1.753907-4 3.953125-4h.089844c2.199219 0 4 1.789063 4 4 0 2.207031-1.792969 4-4 4zm0 0" fill="#f6bb42"/><path d="m152.21875 292.8125c-2.210938 0-4.042969-1.789062-4.042969-4 0-2.207031 1.753907-4 3.953125-4h.089844c2.199219 0 4 1.792969 4 4 0 2.210938-1.792969 4-4 4zm0 0" fill="#f6bb42"/><path d="m168.386719 276.644531c-2.210938 0-4.042969-1.789062-4.042969-4 0-2.207031 1.753906-4 3.953125-4h.089844c2.199219 0 4 1.792969 4 4 0 2.210938-1.800781 4-4 4zm0 0" fill="#f6bb42"/><path d="m263.976562 320.488281c0 4.417969-3.582031 8-8 8-4.417968 0-8-3.582031-8-8 0-4.421875 3.582032-8 8-8 4.417969 0 8 3.578125 8 8zm0 0" fill="#e6e9ed"/><path d="m423.976562 368.488281c0 4.417969-3.582031 8-8 8-4.417968 0-8-3.582031-8-8 0-4.421875 3.582032-8 8-8 4.417969 0 8 3.578125 8 8zm0 0" fill="#e6e9ed"/><g fill="#f6bb42"><path d="m343.976562 276.488281c-2.207031 0-4-1.792969-4-4v-104c0-2.210937 1.792969-4 4-4 2.207032 0 4 1.789063 4 4v104c0 2.207031-1.792968 4-4 4zm0 0"/><path d="m343.976562 428.488281c-2.207031 0-4-1.792969-4-4v-104c0-2.210937 1.792969-4 4-4 2.207032 0 4 1.789063 4 4v104c0 2.207031-1.792968 4-4 4zm0 0"/><path d="m331.976562 279.6875c-1.382812 0-2.726562-.722656-3.464843-2l-52-90.082031c-1.109375-1.917969-.453125-4.359375 1.464843-5.472657 1.921876-1.101562 4.359376-.453124 5.464844 1.472657l52 90.082031c1.113282 1.910156.457032 4.359375-1.464844 5.464844-.632812.367187-1.320312.535156-2 .535156zm0 0"/><path d="m407.976562 411.359375c-1.375 0-2.726562-.722656-3.464843-2l-52-90.082031c-1.109375-1.910156-.453125-4.359375 1.464843-5.464844 1.90625-1.117188 4.359376-.453125 5.464844 1.464844l52 90.082031c1.113282 1.910156.457032 4.359375-1.464844 5.464844-.632812.367187-1.320312.535156-2 .535156zm0 0"/><path d="m323.175781 288.488281c-.679687 0-1.367187-.167969-2-.539062l-90.078125-52c-1.914062-1.101563-2.570312-3.542969-1.464844-5.460938 1.105469-1.914062 3.550782-2.570312 5.464844-1.464843l90.078125 52c1.914063 1.101562 2.570313 3.542968 1.464844 5.464843-.734375 1.277344-2.085937 2-3.464844 2zm0 0"/><path d="m454.847656 364.488281c-.679687 0-1.367187-.167969-2-.539062l-90.078125-52c-1.914062-1.101563-2.566406-3.542969-1.464843-5.460938 1.105468-1.914062 3.5625-2.570312 5.464843-1.464843l90.078125 52c1.914063 1.101562 2.570313 3.542968 1.464844 5.464843-.734375 1.277344-2.085938 2-3.464844 2zm0 0"/><path d="m319.976562 300.488281h-104c-2.207031 0-4-1.792969-4-4 0-2.210937 1.792969-4 4-4h104c2.207032 0 4 1.789063 4 4 0 2.207031-1.792968 4-4 4zm0 0"/><path d="m471.976562 300.488281h-104c-2.207031 0-4-1.792969-4-4 0-2.210937 1.792969-4 4-4h104c2.207032 0 4 1.789063 4 4 0 2.207031-1.792968 4-4 4zm0 0"/><path d="m233.105469 364.488281c-1.375 0-2.726563-.722656-3.464844-2-1.113281-1.914062-.457031-4.363281 1.464844-5.464843l90.078125-52c1.898437-1.121094 4.363281-.464844 5.464844 1.464843 1.113281 1.910157.457031 4.359375-1.464844 5.460938l-90.078125 52c-.632813.371093-1.320313.539062-2 .539062zm0 0"/><path d="m364.777344 288.488281c-1.375 0-2.726563-.722656-3.464844-2-1.109375-1.914062-.457031-4.363281 1.464844-5.464843l90.078125-52c1.90625-1.121094 4.363281-.464844 5.464843 1.464843 1.113282 1.910157.457032 4.359375-1.464843 5.460938l-90.078125 52c-.632813.371093-1.320313.539062-2 .539062zm0 0"/><path d="m279.976562 411.359375c-.679687 0-1.367187-.167969-2-.535156-1.910156-1.105469-2.566406-3.546875-1.464843-5.464844l52-90.082031c1.105469-1.902344 3.554687-2.566406 5.464843-1.464844 1.914063 1.105469 2.570313 3.546875 1.464844 5.464844l-52 90.082031c-.734375 1.285156-2.089844 2-3.464844 2zm0 0"/><path d="m355.976562 279.6875c-.679687 0-1.367187-.167969-2-.535156-1.910156-1.105469-2.566406-3.546875-1.464843-5.464844l52-90.082031c1.105469-1.910157 3.554687-2.558594 5.464843-1.472657 1.914063 1.113282 2.570313 3.546876 1.464844 5.472657l-52 90.082031c-.734375 1.285156-2.089844 2-3.464844 2zm0 0"/></g></svg>