<?xml version="1.0" encoding="iso-8859-1"?>
<!-- Generator: Adobe Illustrator 19.0.0, SVG Export Plug-In . SVG Version: 6.00 Build 0)  -->
<svg version="1.1" id="Layer_1" xmlns="http://www.w3.org/2000/svg" xmlns:xlink="http://www.w3.org/1999/xlink" x="0px" y="0px"
	 viewBox="0 0 164 164" style="enable-background:new 0 0 164 164;" xml:space="preserve">
<g>
	<g>
		<g>
			<path style="fill:#FFD01F;" d="M133.175,127.399c-0.481,0-0.95,0.049-1.41,0.124c-3.625-10.85-13.86-18.674-25.928-18.674
				c-12.069,0-22.304,7.824-25.928,18.674c-0.46-0.075-0.929-0.124-1.41-0.124c-4.854,0-8.788,3.935-8.788,8.787
				c0,4.854,3.935,8.787,8.788,8.787c0.481,0,0.95-0.049,1.41-0.124c3.624,10.85,13.859,18.674,25.928,18.674
				c12.068,0,22.304-7.824,25.928-18.674c0.46,0.075,0.929,0.124,1.41,0.124c4.853,0,8.787-3.934,8.787-8.787
				C141.962,131.334,138.028,127.399,133.175,127.399z"/>
		</g>
	</g>
	<g>
		<g>
			<rect x="22.038" y="36" style="fill:#C8C8C8;" width="67" height="128"/>
		</g>
		<g>
			<rect x="22.038" y="36" style="fill:#DEDEDE;" width="33" height="128"/>
		</g>
		<g>
			<rect x="30.038" y="36" style="fill:#E9E9E9;" width="52" height="111"/>
		</g>
		<g>
			<rect x="30.038" y="66" style="fill:#FFD01F;" width="52" height="81"/>
		</g>
		<g>
			<path style="fill:#FFFFFF;" d="M75.038,117.744c0,1.798-1.458,3.256-3.256,3.256h-0.487c-1.798,0-3.256-1.458-3.256-3.256V77.256
				c0-1.798,1.458-3.256,3.256-3.256h0.487c1.798,0,3.256,1.458,3.256,3.256V117.744z"/>
		</g>
		<g>
			<circle style="fill:#FFFFFF;" cx="71.278" cy="129.124" r="3.658"/>
		</g>
		<g>
			<g>
				<path style="fill:#FFFFFF;" d="M59.038,66h-8V16.571C51.038,7.124,58.481,0,68.351,0h31.687v8H68.351
					c-5.483,0-9.313,3.524-9.313,8.571V66z"/>
			</g>
			<g>
				<path style="fill:#DF1700;" d="M59.038,66h-8V54h8V66z M59.038,44h-8V32h8V44z M59.038,22h-8v-5.429
					c0-2.817,0.636-5.447,1.892-7.816l7.069,3.745c-0.638,1.204-0.961,2.573-0.961,4.071V22z M65.375,8.385l-2.099-7.72
					C64.9,0.224,66.607,0,68.351,0h7.687v8h-7.687C67.316,8,66.315,8.129,65.375,8.385z M98.038,8h-12V0h12V8z"/>
			</g>
		</g>
	</g>
</g>
<g>
</g>
<g>
</g>
<g>
</g>
<g>
</g>
<g>
</g>
<g>
</g>
<g>
</g>
<g>
</g>
<g>
</g>
<g>
</g>
<g>
</g>
<g>
</g>
<g>
</g>
<g>
</g>
<g>
</g>
</svg>
