<?xml version="1.0" encoding="iso-8859-1"?>
<!-- Generator: Adobe Illustrator 19.0.0, SVG Export Plug-In . SVG Version: 6.00 Build 0)  -->
<svg version="1.1" id="Layer_1" xmlns="http://www.w3.org/2000/svg" xmlns:xlink="http://www.w3.org/1999/xlink" x="0px" y="0px"
	 viewBox="0 0 155.883 155.883" style="enable-background:new 0 0 155.883 155.883;" xml:space="preserve">
<g>
	<g>
		<g>
			<circle style="fill:#9CC105;" cx="104.089" cy="43.127" r="25.159"/>
		</g>
		<g>
			<circle style="fill:#FFD01F;" cx="104.438" cy="42.777" r="20.616"/>
		</g>
		<g>
			<circle style="fill:#FFFFFF;" cx="104.438" cy="42.777" r="20.616"/>
		</g>
		<g>
			<g>
				<path style="fill:#D5E44F;" d="M103.478,41.613v-15.82c-8.8,0.395-15.929,7.176-16.886,15.82H103.478z"/>
			</g>
			<g>
				<path style="fill:#D5E44F;" d="M122.285,41.379c-1.451-8.254-8.202-14.674-16.626-15.607v15.607H122.285z"/>
			</g>
			<g>
				<path style="fill:#D5E44F;" d="M103.478,43.941v15.822c-8.8-0.398-15.929-7.178-16.886-15.822H103.478z"/>
			</g>
			<g>
				<path style="fill:#D5E44F;" d="M122.285,44.174c-1.451,8.256-8.202,14.678-16.626,15.609V44.174H122.285z"/>
			</g>
		</g>
	</g>
	<g>
		<polygon style="fill:#ABD9D5;" points="91.854,155.883 35.105,155.883 26.635,47.883 100.323,47.883 		"/>
	</g>
	<g>
		<polygon style="fill:#CDE8E6;" points="61.656,155.883 35.105,155.883 26.635,47.883 61.656,47.883 		"/>
	</g>
	<g>
		<polygon style="fill:#DDF0EE;" points="85.925,141.883 41.034,141.883 32.564,47.883 94.395,47.883 		"/>
	</g>
	<g>
		<polygon style="fill:#D5E44F;" points="34.471,68.607 41.034,141.449 85.925,141.449 92.487,68.607 		"/>
	</g>
	<g>
		<polygon style="fill:#9CC105;" points="63.903,68.607 34.471,68.607 41.034,141.449 63.903,141.449 		"/>
	</g>
	<path style="fill:#FFFFFF;" d="M81.342,127.346c-0.215,2.33-2.278,4.043-4.606,3.828l0,0c-2.329-0.215-4.042-2.277-3.828-4.605
		l4.048-43.857c0.215-2.33,2.278-4.045,4.606-3.828l0,0c2.329,0.215,4.043,2.275,3.828,4.605L81.342,127.346z"/>
	<g>
		<g>
			<polygon style="fill:#F62D8D;" points="34.861,0 39.849,47.432 48.732,47.432 43.743,0 			"/>
		</g>
	</g>
</g>
<g>
</g>
<g>
</g>
<g>
</g>
<g>
</g>
<g>
</g>
<g>
</g>
<g>
</g>
<g>
</g>
<g>
</g>
<g>
</g>
<g>
</g>
<g>
</g>
<g>
</g>
<g>
</g>
<g>
</g>
</svg>
