<svg height="512pt" viewBox="-84 0 512 512" width="512pt" xmlns="http://www.w3.org/2000/svg"><path d="m290.460938 0h-236.308594c-8.15625 0-14.769532 6.613281-14.769532 14.769531v64c0 8.15625 6.613282 14.769531 14.769532 14.769531h236.308594c8.15625 0 14.769531-6.613281 14.769531-14.769531v-64c0-8.15625-6.613281-14.769531-14.769531-14.769531zm0 0" fill="#5f69e3"/><path d="m329.847656 162.460938h-315.078125c-8.15625 0-14.769531 6.613281-14.769531 14.769531v290.460937c0 24.433594 19.875 44.308594 44.308594 44.308594h256c24.429687 0 44.308594-19.875 44.308594-44.308594v-290.460937c0-8.15625-6.613282-14.769531-14.769532-14.769531zm0 0" fill="#fcf2b6"/><path d="m343.558594 171.746094-39.382813-98.460938c-2.246093-5.609375-7.675781-9.285156-13.714843-9.285156h-236.308594c-6.035156 0-11.46875 3.675781-13.710938 9.285156l-39.386718 98.460938c-1.820313 4.550781-1.261719 9.707031 1.484374 13.765625 2.75 4.058593 7.328126 6.488281 12.230469 6.488281h315.078125c4.898438 0 9.480469-2.429688 12.226563-6.488281 2.75-4.058594 3.304687-9.214844 1.484375-13.765625zm0 0" fill="#4895ff"/><path d="m280.40625 252.195312c-3.257812-2.808593-7.578125-4.054687-11.828125-3.417968l-196.921875 29.539062c-7.230469 1.085938-12.578125 7.296875-12.578125 14.605469v118.15625c0 4.296875 1.871094 8.386719 5.128906 11.191406 2.699219 2.320313 6.125 3.578125 9.636719 3.578125.730469 0 1.460938-.054687 2.191406-.164062l196.925782-29.539063c7.230468-1.085937 12.578124-7.296875 12.578124-14.605469v-118.15625c0-4.296874-1.875-8.382812-5.132812-11.1875zm0 0" fill="#ff3c7d"/><path d="m123.058594 356.925781c-7.1875 0-13.488282-5.257812-14.585938-12.582031-1.210937-8.066406 4.347656-15.585938 12.414063-16.796875l98.460937-14.769531c8.066406-1.207032 15.585938 4.347656 16.796875 12.414062 1.210938 8.070313-4.347656 15.589844-12.414062 16.800782l-98.460938 14.765624c-.746093.113282-1.484375.167969-2.210937.167969zm0 0" fill="#fdd835"/><path d="m290.460938 0h-118.152344v93.539062h118.152344c8.15625 0 14.769531-6.613281 14.769531-14.769531v-64c0-8.15625-6.613281-14.769531-14.769531-14.769531zm0 0" fill="#3440db"/><path d="m329.847656 162.460938h-157.539062v349.539062h128c24.429687 0 44.308594-19.875 44.308594-44.308594v-290.460937c0-8.15625-6.613282-14.769531-14.769532-14.769531zm0 0" fill="#ffde91"/><path d="m343.558594 171.746094-39.382813-98.460938c-2.246093-5.609375-7.675781-9.285156-13.714843-9.285156h-118.152344v128h157.539062c4.898438 0 9.480469-2.429688 12.226563-6.488281 2.75-4.058594 3.304687-9.214844 1.484375-13.765625zm0 0" fill="#046eff"/><path d="m280.40625 252.195312c-3.257812-2.808593-7.578125-4.054687-11.828125-3.417968l-96.269531 14.441406v148.023438l100.652344-15.097657c7.230468-1.085937 12.578124-7.296875 12.578124-14.605469v-118.15625c0-4.296874-1.875-8.382812-5.132812-11.1875zm0 0" fill="#d10050"/><path d="m236.144531 325.191406c-1.210937-8.066406-8.730469-13.621094-16.796875-12.414062l-47.039062 7.058594v29.867187l51.421875-7.714844c8.066406-1.207031 13.625-8.726562 12.414062-16.796875zm0 0" fill="#fbc02d"/></svg>