<svg height="512pt" viewBox="-46 0 512 512" width="512pt" xmlns="http://www.w3.org/2000/svg"><path d="m270 0v62l-30 30h-30l-30-30v-62zm0 0" fill="#c6715a"/><path d="m240 92h-15v-92h45v62zm0 0" fill="#b35f49"/><path d="m420 212c0-66.300781-53.699219-120-120-120-10.199219 0-20.398438 1.199219-30 3.898438v-33.898438h-150l60 80.097656v50.703125l-65.398438 109.199219 46.796876 30 127.203124 30 61.199219-30c-1.199219-3-1.5-6.300781-3-9.300781 43.800781-18.597657 73.199219-61.800781 73.199219-110.699219zm-90.601562 6.597656c-3.300782 13.800782-16.199219 24-30 23.402344l-26.097657-43.800781c5.097657-9.601563 15.296875-16.199219 26.699219-16.199219 16.5 0 30 13.5 30 30 0 2.398438-.300781 4.5-.601562 6.597656zm0 0" fill="#deecf1"/><path d="m420 212c0-66.300781-53.699219-120-120-120-10.199219 0-20.398438 1.199219-30 3.898438v-33.898438h-45v285l63.601562 15 61.199219-30c-1.199219-3-1.5-6.300781-3-9.300781 43.800781-18.597657 73.199219-61.800781 73.199219-110.699219zm-90.601562 6.597656c-3.300782 13.800782-16.199219 24-30 23.402344l-26.097657-43.800781c5.097657-9.601563 15.296875-16.199219 26.699219-16.199219 16.5 0 30 13.5 30 30 0 2.398438-.300781 4.5-.601562 6.597656zm0 0" fill="#c5d3dd"/><path d="m360 383c0 39-15 75.296875-42.597656 102.597656l-26.101563 26.402344h-126.300781c-1.5-6.300781-49.800781-205.503906-50.699219-209.699219l.300781-.300781h46.796876c21.902343 0 43.800781 4.496094 63.601562 13.796875 2.101562.601563 4.5 1.503906 6.597656 2.703125 17.703125 9 37.203125 13.5 57.003906 13.5h61.199219c6.898438 18.601562 10.199219 41.398438 10.199219 51zm0 0" fill="#ffd396"/><path d="m360 383c0 39-15 75.296875-42.597656 102.597656l-26.101563 26.402344h-66.300781v-196.199219c2.101562.597657 4.5 1.5 6.597656 2.699219 17.703125 9 37.203125 13.5 57.003906 13.5h61.199219c6.898438 18.601562 10.199219 41.398438 10.199219 51zm0 0" fill="#ffb64c"/><path d="m100.003906 245.824219-10.003906-8.964844-10.003906 8.964844c-2.035156 1.828125-49.996094 45.410156-49.996094 101.175781 0 22.542969 7.703125 45.703125 22.894531 68.816406l68.484375 8.191406c13.0625-17.667968 28.621094-45.367187 28.621094-77.007812 0-55.765625-47.960938-99.347656-49.996094-101.175781zm0 0" fill="#009184"/><path d="m75 392c-41.351562 0-75 26.910156-75 60s33.648438 60 75 60c20.699219 0 40.648438-6.855469 54.710938-18.808594v-82.382812c-14.0625-11.953125-34.011719-18.808594-54.710938-18.808594zm0 0" fill="#6b0"/><path d="m165 512c-41.351562 0-75-26.910156-75-60s33.648438-60 75-60 75 26.910156 75 60-33.648438 60-75 60zm0 0" fill="#9cdd05"/></svg>