<?xml version="1.0" encoding="iso-8859-1"?>
<!-- Generator: Adobe Illustrator 19.0.0, SVG Export Plug-In . SVG Version: 6.00 Build 0)  -->
<svg version="1.1" id="Layer_1" xmlns="http://www.w3.org/2000/svg" xmlns:xlink="http://www.w3.org/1999/xlink" x="0px" y="0px"
	 viewBox="0 0 512 512" style="enable-background:new 0 0 512 512;" xml:space="preserve">
<path style="fill:#F76F69;" d="M345.669,165.638l-4.471-1.029c-41.716-14.26-48.913-72.943-48.913-72.943
	c0,51.463-48.875,72.943-48.875,72.943l-2.783,0.612c-48.717,11.517-88.803,39.563-110.723,80.441
	c-4.724,30.774-8.351,63.096-9.953,95.624h1.592v36.162c0.936,2.534,1.932,5.028,2.993,7.482
	c22.633,8.23,39.138,29.163,40.404,54.302c32.642,27.762,77.649,43.129,127.347,43.129c99.688,0,180.508-61.816,180.508-161.509
	C472.793,239.748,419.297,183.713,345.669,165.638z"/>
<g>
	<path style="fill:#D83C35;" d="M292.286,490.622c-30.631,0-55.648-34.876-66.926-93.293c-0.865-4.478,2.067-8.811,6.546-9.676
		c4.479-0.866,8.811,2.065,9.676,6.546c9.513,49.286,28.942,79.902,50.703,79.902c14.411,0,28.111-13.612,38.577-38.33
		c12.089-28.549,18.478-68.287,18.478-114.918c0-67.27-14.264-122.513-37.233-144.215c-2.465-2.237-28.084-26.825-28.084-81.807
		c0-4.563,3.699-8.261,8.261-8.261c4.563,0,8.26,3.697,8.26,8.261c0,49.128,22.381,69.322,22.606,69.522
		c0.073,0.065,0.146,0.129,0.217,0.196c26.605,25.052,42.492,83.484,42.492,156.304c0,48.825-6.843,90.791-19.787,121.359
		C332.859,473.43,313.755,490.622,292.286,490.622z"/>
	<path style="fill:#D83C35;" d="M230.024,382.09c-4.11,0-7.671-3.066-8.187-7.252c-2.076-16.838-3.128-35-3.128-53.985
		c0-69.49,14.011-124.947,38.439-152.153c0.318-0.355,0.667-0.681,1.041-0.976c1.012-0.819,25.836-21.5,25.836-72.894
		c0-4.563,3.699-8.261,8.26-8.261c4.563,0,8.261,3.697,8.261,8.261c0,55.838-26.77,81.287-31.485,85.336
		c-21.193,24.055-33.832,76.564-33.832,140.687c0,18.311,1.011,35.794,3.004,51.965c0.56,4.527-2.659,8.65-7.187,9.208
		C230.703,382.07,230.361,382.09,230.024,382.09z"/>
	<path style="fill:#D83C35;" d="M249.931,512c-3.018,0-5.928-1.662-7.38-4.541c-2.054-4.073-0.42-9.041,3.652-11.097l37.822-19.085
		V91.667c0-4.563,3.699-8.261,8.26-8.261c4.563,0,8.261,3.697,8.261,8.261v390.695c0,3.118-1.756,5.971-4.539,7.374l-42.361,21.376
		C252.453,511.715,251.183,512,249.931,512z"/>
	<path style="fill:#D83C35;" d="M335.333,512c-1.261,0-2.543-0.291-3.743-0.902l-29.943-15.257v7.896
		c0,4.563-3.697,8.261-8.261,8.261c-4.562,0-8.261-3.697-8.261-8.261v-21.376c0-2.874,1.495-5.541,3.945-7.043
		c2.451-1.503,5.505-1.621,8.067-0.317l41.951,21.376c4.064,2.072,5.681,7.045,3.61,11.111C341.24,510.351,338.34,512,335.333,512z"
		/>
	<path style="fill:#D83C35;" d="M413.722,241.29c-1.389-4.46-6.038-6.921-10.383-5.495c-4.344,1.425-6.743,6.194-5.355,10.655
		c6.728,21.617,10.141,45.15,10.141,69.947c0,92.598-47.636,157.271-115.839,157.271s-115.839-64.673-115.839-157.271
		c0-69.044,25.953-127.006,66.732-150.675v-1.061l-2.551,0.561c-13.042,3.083-25.454,7.362-37.076,12.742
		c-27.353,32.692-43.624,82.353-43.624,138.433c0,50.934,13.2,94.696,38.173,126.553c10.425,13.298,22.601,24.006,36.027,31.882
		c18.249,4.949,37.81,7.529,58.16,7.529c20.346,0,39.904-2.577,58.151-7.524c13.429-7.876,25.61-18.587,36.037-31.888
		c24.973-31.857,38.172-75.619,38.172-126.553C424.645,289.846,420.969,264.578,413.722,241.29z"/>
</g>
<g style="opacity:0.15;">
	<path style="fill:#231F20;" d="M137.573,325.183c0-74.074,39.562-129.604,98.704-158.883
		c-46.75,12.13-85.109,39.707-106.373,79.362c-4.724,30.774-8.351,63.096-9.953,95.624h1.592v36.162
		c0.936,2.534,1.932,5.028,2.993,7.482c22.633,8.23,39.138,29.163,40.404,54.302c11.574,9.843,24.707,18.118,39.045,24.713
		C163.178,432.368,137.573,384.777,137.573,325.183z"/>
</g>
<path style="fill:#D83C35;" d="M404.441,216.896c-6.86-15.037-15.317-28.389-24.994-39.659
	c-10.649-4.808-21.952-8.696-33.778-11.599l-4.471-1.029c-0.65-0.221-1.291-0.456-1.923-0.699v1.086
	c20.385,11.688,37.992,32.322,50.204,59.089c1.404,3.077,4.38,4.885,7.486,4.885c1.174,0,2.366-0.258,3.498-0.803
	C404.597,226.183,406.378,221.136,404.441,216.896z"/>
<path style="fill:#43A838;" d="M102.53,217.275c5.178-29.525,11.018-56.439,16.471-79.071c0.383-1.588,0.765-3.153,1.149-4.716
	V16.521C120.151,7.397,112.753,0,103.63,0c-9.125,0-16.521,7.397-16.521,16.521v148.492c4.988,14.613,10.486,32.488,15.542,52.752
	C102.61,217.603,102.571,217.437,102.53,217.275z"/>
<g>
	<path style="fill:#70C449;" d="M120.06,341.286C117.871,224.087,72.7,124.866,70.73,120.6c-3.824-8.285-13.639-11.902-21.922-8.078
		c-8.284,3.823-11.901,13.639-8.078,21.922c0.452,0.98,44.036,96.683,46.282,206.841H120.06z"/>
	<path style="fill:#70C449;" d="M162.982,98.327c10.483-37.746,18.823-61.336,19.07-62.03c3.074-8.591-1.397-18.048-9.985-21.123
		c-8.594-3.078-18.049,1.397-21.123,9.985c-0.654,1.827-16.198,45.493-31.943,110.842c-5.453,22.632-11.294,49.545-16.471,79.071
		c9.022,36.036,16.661,79.704,17.53,126.214h0.991c4.049-82.2,21.002-163.117,36.013-220.928"/>
</g>
<path style="fill:#DCF4E4;" d="M124.846,382.31v-35.517c0-4.258-3.453-7.71-7.71-7.71H91.054c-4.259,0-7.71,3.452-7.71,7.71v35.943
	c-25.314,9.074-42.21,32.829-42.21,59.607c0,35.068,28.529,63.597,63.597,63.597s63.597-28.53,63.597-63.597
	C168.328,414.946,150.923,391.023,124.846,382.31z"/>
<path style="fill:#C3E2CD;" d="M129.574,468.129c-1.332,0-2.683-0.323-3.935-1.003c-4.009-2.179-5.493-7.192-3.314-11.201
	c1.842-3.391,2.816-7.242,2.816-11.135c0-10.243-6.659-19.167-16.568-22.209c-4.363-1.338-6.813-5.959-5.475-10.32
	c1.338-4.36,5.959-6.81,10.321-5.474c16.893,5.184,28.243,20.456,28.243,38.003c0,6.64-1.668,13.218-4.821,19.022
	C135.345,466.567,132.506,468.129,129.574,468.129z"/>
<g>
</g>
<g>
</g>
<g>
</g>
<g>
</g>
<g>
</g>
<g>
</g>
<g>
</g>
<g>
</g>
<g>
</g>
<g>
</g>
<g>
</g>
<g>
</g>
<g>
</g>
<g>
</g>
<g>
</g>
</svg>
