<svg height="495pt" viewBox="-46 0 495 495.992" width="495pt" xmlns="http://www.w3.org/2000/svg"><path d="m174.296875 104.046875 40.015625.015625s-15-74.542969 47.082031-80.046875v-24.015625c-99.585937 16-87.097656 104.046875-87.097656 104.046875zm0 0" fill="#a0d468"/><g fill="#da4453"><path d="m357.394531 112c80 0 51.277344 376-64 376l-18.632812-1.199219c40.480469-36.082031 63.191406-168 63.191406-221.839843 0-46.953126 4.878906-118.5625-21.921875-151.441407l-1.6875-1.519531zm0 0"/><path d="m45.816406 112c-80 0-51.28125 376 64 376l18.632813-1.199219c-40.480469-36.082031-63.191407-168-63.191407-221.839843 0-46.953126-4.882812-118.5625 21.917969-151.441407l1.6875-1.519531zm0 0"/><path d="m338.738281 427-45.34375 61h-183.578125l-57.542968-61v-315h286.464843zm0 0"/></g><path d="m316.03125 113.511719c26.808594 32.871093 21.921875 104.488281 21.921875 151.441406 0 53.839844-22.71875 185.765625-63.191406 221.839844-6.640625 5.839843-13.769531 9.199219-21.367188 9.199219h-103.601562c-6.640625 0-12.953125-2.558594-18.871094-7.128907-.800781-.640625-1.679687-1.359375-2.488281-2.078125-40.480469-36.082031-63.191406-168-63.191406-221.839844 0-44.800781-4.480469-112.082031 18.398437-146.722656 1.128906-1.589844 2.320313-3.199218 3.511719-4.71875 8.878906-10.871094 21.359375-17.511718 38.640625-17.511718l75.601562.078124h.398438l75.601562-.078124c17.277344.007812 29.75 6.648437 38.636719 17.519531zm0 0" fill="#ed5565"/></svg>