<?xml version="1.0" encoding="iso-8859-1"?>
<!-- Generator: Adobe Illustrator 19.0.0, SVG Export Plug-In . SVG Version: 6.00 Build 0)  -->
<svg xmlns="http://www.w3.org/2000/svg" xmlns:xlink="http://www.w3.org/1999/xlink" version="1.1" id="Layer_1" x="0px" y="0px" viewBox="0 0 490.831 490.831" style="enable-background:new 0 0 490.831 490.831;" xml:space="preserve" width="512" height="512">
<g>
	<g>
		<path style="fill:#3F3730;" d="M19.731,479.376c-1.919,0-3.839-0.732-5.304-2.197c-2.929-2.929-2.929-7.678,0-10.606    l16.576-16.576c2.93-2.929,7.678-2.929,10.607,0c2.929,2.929,2.929,7.678,0,10.606l-16.576,16.576    C23.57,478.644,21.65,479.376,19.731,479.376z"/>
		<path style="fill:#3F3730;" d="M8.276,458.033c-1.92,0-3.839-0.732-5.304-2.197c-2.929-2.929-2.929-7.678,0.001-10.606    l11.633-11.632c2.928-2.929,7.677-2.929,10.606,0c2.929,2.929,2.929,7.678-0.001,10.606l-11.633,11.632    C12.115,457.301,10.195,458.033,8.276,458.033z"/>
		<path style="fill:#3F3730;" d="M41.074,490.831c-1.919,0-3.839-0.732-5.303-2.197c-2.93-2.929-2.93-7.677-0.001-10.606    l11.632-11.632c2.93-2.929,7.679-2.93,10.606,0c2.93,2.929,2.93,7.677,0.001,10.606l-11.632,11.632    C44.913,490.099,42.993,490.831,41.074,490.831z"/>
	</g>
	<path style="fill:#70D65B;" d="M490.055,79.005c0,72.816-209.798,211.943-285.521,287.666l-40.15-40.15l-39.448-39.448   c43.373-43.373,99.866-194.73,231.183-278.61c0,0-12.28,36.433-36.077,84.69c-0.662,1.236-1.275,2.481-1.849,3.717   c0.623-1.245,1.236-2.481,1.849-3.717C345.293,45.776,433.928,0,479.209,0c0,0-29.314,51.53-74.784,109.447   C436.676,89.011,490.055,79.005,490.055,79.005z"/>
	<path style="fill:#58B741;" d="M164.384,326.521l-39.448-39.448c43.373-43.373,99.866-194.73,231.183-278.61   C326.557,38.025,156.781,231.044,164.384,326.521z"/>
	<path style="fill:#58B741;" d="M260.031,317.388c35.199-28.921,135.215-47.423,185.089-106.691c0,0-32.57-6.854-59.447,2.371"/>
	<path style="fill:#E6E6E6;" d="M204.533,366.672l-79.598-79.598L38.74,352.32C4.016,378.604,0.512,429.505,31.307,460.3l0,0   c30.795,30.795,81.696,27.291,107.98-7.433L204.533,366.672z"/>
	<path style="fill:#CCCCCC;" d="M149.413,311.547l-79.757,71.689c-32.132,28.879-50.205,65.203-38.341,77.067   C0.518,429.506,4.017,378.608,38.74,352.32l86.203-65.243L149.413,311.547z"/>
	<path style="fill:#58B741;" d="M479.21,0.004C426.375,9.95,323.345,120.791,261.562,192.272   c23.995-33.724,43.591-68.901,58.599-99.342c0.02-0.059,0.049-0.119,0.079-0.168C345.788,45.522,434.047,0.004,479.21,0.004z"/>
	<path style="fill:#58B741;" d="M490.054,79.01c-40.338,20.456-130.822,86.638-159.405,111.968   c27.277-25.439,52.331-54.19,73.785-81.526C436.675,89.015,490.054,79.01,490.054,79.01z"/>
</g>















</svg>
