<svg height="512pt" viewBox="-49 0 512 512.00104" width="512pt" xmlns="http://www.w3.org/2000/svg"><path d="m211.867188 185.378906c8.671874 17.789063 41.15625 27.03125 64.714843 38.746094-31.582031-54.414062-21.792969-118.195312-21.792969-118.195312-21.832031 21.832031-39.53125 56.410156-42.921874 79.449218zm0 0" fill="#23a24d"/><path d="m211.867188 123.585938c-2.453126-8.4375-8.824219-26.484376-8.824219-26.484376s.367187.910157.925781 2.570313c1.914062-9.5-5.816406-19.058594-3.0625-28.363281-10.222656-19.96875-23.710938-37.324219-41.148438-44.074219-.785156-.300781-1.605468.457031-1.304687 1.242187 4.371094 11.449219 23.65625 97.34375 35.761719 148.074219 2.761718-15.871093 19.472656-43.582031 17.652344-52.964843zm0 0" fill="#23a24d"/><path d="m211.867188 187.894531c2.886718-19.597656 18.664062-51.800781 34.09375-71.785156v-116.109375c-25.183594 14.390625-40.09375 49.320312-48.929688 85.644531-1.96875 8.09375-1.988281 16.5-.382812 24.671875.011718.046875.019531.097656.027343.144532 4.253907 14.636718 2.800781 49.265624 15 77.441406.191407-.007813 0 0 .191407-.007813zm0 0" fill="#3d6f44"/><path d="m194.214844 185.378906c-.179688-.273437-3.195313-14.097656-3.375-14.371094-7.554688-15.546874-20.273438-32.953124-41.992188-47.421874 0 0 14.292969 42.929687 20.136719 78.699218 20.3125-20.4375 17.460937-1.007812 25.230469-16.90625zm0 0" fill="#61b872"/><path d="m315.832031 241.398438c-30.316406-15.4375-67.867187-24.910157-89.601562-53.460938-13.320313-17.496094-21.125-43.800781-27.328125-67.757812-.035156.007812-.070313 0-.105469.007812 14.511719 96.386719-116.410156 125.050781-165.6875 187.179688-46.078125 58.105468-47.78125 131.839843 18.636719 172.632812 53.195312 32.671875 116.453125 32 176.550781 32 70.136719 0 165.605469-11.070312 183.304687-94.5625 15.898438-74.925781-32.148437-143.632812-95.769531-176.039062zm0 0" fill="#bf4d90"/><path d="m213.863281 512c-42.546875 0-90.765625 0-128.554687-28.082031-17.796875-13.222657-28.371094-30.550781-31.425782-51.5-3.707031-25.457031 4.199219-55.382813 21.714844-82.105469 11.945313-18.21875 32.328125-34.230469 53.902344-51.191406 24.390625-19.164063 52.125-40.949219 70.011719-70.488282.371093.621094.75 1.230469 1.128906 1.835938 16.761719 26.660156 41.003906 39.3125 62.394531 50.46875 6.8125 3.558594 13.25 6.921875 19.144532 10.550781 40.609374 25.023438 79.113281 81.6875 67.671874 146.953125-8.800781 50.183594-50.140624 73.558594-130.089843 73.558594zm0 0" fill="#d16fac"/><path d="m216.113281 512c-34.292969 0-73.160156 0-101.296875-24.160156-10.722656-9.21875-16.761718-20.191406-18.449218-33.535156-2.230469-17.746094 3.355468-40.566407 14.972656-61.054688 8.40625-14.820312 24.761718-29.6875 42.082031-45.417969 16.789063-15.253906 35.210937-31.988281 50.765625-53.351562 15.105469 18.035156 32.363281 28.449219 46.964844 37.25 5.585937 3.375 10.875 6.570312 15.464844 9.835937 28.902343 20.59375 56.433593 66.25 48.613281 117.867188-2.179688 14.359375-7.972657 52.566406-94.011719 52.566406zm0 0" fill="#e099c8"/><path d="m214.367188 512c-26.101563 0-55.675782 0-75.027344-20.242188-7.132813-7.46875-7.75-13.363281-7.980469-15.589843-.855469-8.253907 1.652344-23.824219 9.171875-39.96875 5.316406-11.433594 18.285156-25.777344 30.820312-39.65625 10.890626-12.046875 22.886719-25.324219 34.160157-41.375 10.9375 12.269531 22.0625 20.445312 31.472656 27.359375 4.351563 3.195312 8.464844 6.222656 11.800781 9.117187 19.191406 16.65625 36.273438 52.496094 31.753906 88.769531-3.257812 26.105469-35.503906 31.585938-61.980468 31.585938zm0 0" fill="#edbee0"/><path d="m211.402344 512c-13.878906 0-28.230469 0-35.566406-12.058594-.222657-.363281-.382813-.652344-.503907-.890625.035157-3.53125.785157-13.164062 4.351563-25.195312 2.304687-7.785157 10.328125-21.734375 16.761718-32.945313 3.628907-6.300781 7.445313-12.941406 11.308594-20.125 2.863282 3.582032 5.570313 6.71875 8.0625 9.578125 2.550782 2.957031 4.855469 5.613281 6.425782 7.757813 7.398437 10.089844 16.789062 37.066406 14.546874 65.511718-.238281 2.910157-7.132812 8.367188-22.722656 8.367188zm0 0" fill="#f4e4f0"/></svg>