<?xml version="1.0" encoding="iso-8859-1"?>
<!-- Generator: Adobe Illustrator 19.0.0, SVG Export Plug-In . SVG Version: 6.00 Build 0)  -->
<svg xmlns="http://www.w3.org/2000/svg" xmlns:xlink="http://www.w3.org/1999/xlink" version="1.1" id="Layer_1" x="0px" y="0px" viewBox="0 0 512 512" style="enable-background:new 0 0 512 512;" xml:space="preserve" width="512" height="512">
<g>
	<polygon style="fill:#FFF5F5;" points="512,178.706 512,238.706 471.501,268.706 40.6,268.706 0,238.706 0,178.706  "/>
	<polygon style="fill:#EFE2DD;" points="512,178.706 512,238.706 471.501,268.706 256,268.706 256,178.706  "/>
	<path style="fill:#FED966;" d="M512,238.706v45c0,93.9-58.9,175.6-140.799,209.2H140.799C58.9,459.306,0,377.606,0,283.706v-45H512   z"/>
	<path style="fill:#FDBF00;" d="M512,238.706v45c0,93.9-58.9,175.6-140.799,209.2H256v-254.2H512z"/>
	<g>
		<path style="fill:#8C4A37;" d="M256,343.706l-101.7-49.2l-12.9,27.001c-21.899,45-3.3,98.699,41.4,120.298    c24,11.7,50.4,11.7,73.2,2.401c20.099-8.101,36.899-23.399,47.1-44.099l13.2-27.001L256,343.706z"/>
	</g>
	<g>
		<g>
			<g>
				<rect x="391" y="328.706" style="fill:#FF9100;" width="30" height="30"/>
			</g>
		</g>
	</g>
	<g>
		<rect x="331" y="388.706" style="fill:#FF9100;" width="30" height="30"/>
	</g>
	<g>
		<g>
			<g>
				<rect x="61" y="298.706" style="fill:#FDBF00;" width="30" height="30"/>
			</g>
		</g>
	</g>
	<g>
		<g>
			<path style="fill:#FDE4E4;" d="M173.427,147.255c-14.238-9.492-22.734-25.371-22.734-42.48s8.496-32.988,22.734-42.48     c5.962-3.97,9.375-10.356,9.375-17.52s-3.413-13.55-9.375-17.52l16.641-24.961c14.238,9.492,22.734,25.371,22.734,42.48     s-8.496,32.988-22.734,42.48c-5.962,3.97-9.375,10.356-9.375,17.52s3.413,13.55,9.375,17.52L173.427,147.255z"/>
		</g>
	</g>
	<g>
		<g>
			<path style="fill:#FDE4E4;" d="M287.8,44.905c0,17.1-8.399,33.001-22.8,42.301c-5.4,3.3-8.399,9-9,15     c-0.3,0.899-0.3,1.8-0.3,2.699c0,0.901,0,1.8,0.3,2.701c0.601,5.999,3.9,11.4,9,14.7l-9,13.5l-7.5,11.4     c-14.399-9.3-22.8-25.201-22.8-42.301s8.401-32.999,22.8-42.599c3.6-2.401,6-5.4,7.5-9c1.199-2.701,1.8-5.4,1.8-8.401     c0-2.999-0.601-6-1.8-8.699c-1.5-3.6-3.9-6.601-7.5-9l7.5-11.4l9-13.5C279.401,11.906,287.8,27.805,287.8,44.905z"/>
		</g>
	</g>
	<g>
		<g>
			<path style="fill:#FCCED3;" d="M323.427,147.255c-14.238-9.492-22.734-25.371-22.734-42.48s8.496-32.988,22.734-42.48     c5.962-3.97,9.375-10.356,9.375-17.52s-3.413-13.55-9.375-17.52l16.641-24.961c14.238,9.492,22.734,25.371,22.734,42.48     s-8.496,32.988-22.734,42.48c-5.962,3.97-9.375,10.356-9.375,17.52s3.413,13.55,9.375,17.52L323.427,147.255z"/>
		</g>
	</g>
	<path style="fill:#663325;" d="M507.605,88.266c-3.926-11.367-12.056-20.508-22.866-25.752   c-22.324-10.825-49.277-1.465-60.132,20.83L276.215,387.124l40.073-13.885L451.59,96.44c3.618-7.427,12.612-10.518,20.054-6.943   c7.441,3.618,10.547,12.598,6.943,20.039l-3.34,6.885l26.982,13.096l3.34-6.885C510.828,111.821,511.546,99.619,507.605,88.266z"/>
	<path style="fill:#FCCED3;" d="M265,122.305l-9,13.5v-28.2C256.601,113.604,259.9,119.006,265,122.305z"/>
	<path style="fill:#FCCED3;" d="M287.8,44.905c0,17.1-8.399,33.001-22.8,42.301c-5.4,3.3-8.399,9-9,15v-48.9   c1.199-2.701,1.8-5.4,1.8-8.401c0-2.999-0.601-6-1.8-8.699v-20.4l9-13.5C279.401,11.906,287.8,27.805,287.8,44.905z"/>
	<path style="fill:#663325;" d="M256,444.205V343.706l60.3,29.399l-13.2,27.001C292.899,420.806,276.099,436.104,256,444.205z"/>
	<g>
		<g>
			<rect x="61" y="479.706" style="fill:#FFF5F5;" width="390" height="30"/>
		</g>
	</g>
	<rect x="256" y="479.706" style="fill:#EFE2DD;" width="195" height="30"/>
</g>















</svg>
