<svg height="503pt" viewBox="-113 0 503 503.90981" width="503pt" xmlns="http://www.w3.org/2000/svg"><path d="m77.152344 164.925781c16.835937-46.253906 9.023437-62.914062 7.027344-68.382812-.308594-.769531-.457032-1.597657-.433594-2.429688v-15.964843l55.539062-26.035157 55.539063 26.035157v15.964843c.027343.832031-.121094 1.660157-.433594 2.429688-1.996094 5.46875-9.804687 22.128906 7.03125 68.382812l-57.796875 26.035157zm0 0" fill="#b0d3f0"/><path d="m242.207031 10.804688-5.03125 17.355468c-1.46875 4.113282-5.445312 6.789063-9.808593 6.597656h-6.941407c-3.253906-.050781-6.351562 1.386719-8.417969 3.90625l-17.183593 39.484376h-111.078125l-17.179688-39.484376c-2.066406-2.519531-5.164062-3.957031-8.417968-3.90625h-6.941407c-4.363281.191407-8.339843-2.484374-9.808593-6.597656l-5.03125-17.355468c-.550782-2.8125.265624-5.722657 2.195312-7.84375 1.933594-2.121094 4.753906-3.203126 7.609375-2.914063h186.230469c2.851562-.289063 5.675781.792969 7.605468 2.914063 1.933594 2.121093 2.75 5.03125 2.199219 7.84375zm0 0" fill="#e64c3c"/><path d="m275.617188 459.976562c-7.550782 52.070313-20.21875 43.390626-131.296876 43.390626h-10.066406c-111.078125 0-123.75 8.679687-131.296875-43.390626-7.550781-52.066406 0-147.523437 50.503907-242.980468 9.058593-16.804688 16.976562-34.199219 23.691406-52.070313h124.269531c6.714844 17.871094 14.628906 35.265625 23.691406 52.070313 50.503907 95.457031 58.054688 190.914062 50.503907 242.980468zm0 0" fill="#805333"/><g fill="#e4c05c"><path d="m65.523438 399.230469c-12.296876.015625-23.386719-7.382813-28.09375-18.742188-4.710938-11.359375-2.101563-24.4375 6.597656-33.125 12.054687-11.425781 30.941406-11.425781 42.992187 0 4.210938 4.214844 7.089844 9.578125 8.269531 15.421875.957032 4.695313-2.070312 9.28125-6.769531 10.238282-4.695312.960937-9.28125-2.070313-10.238281-6.769532-.5-2.503906-1.726562-4.808594-3.53125-6.621094-5.179688-4.886718-13.273438-4.886718-18.449219 0-3.742187 3.726563-4.863281 9.339844-2.839843 14.214844 2.019531 4.875 6.785156 8.042969 12.0625 8.027344 4.792968 0 8.679687 3.886719 8.679687 8.679688 0 4.792968-3.886719 8.675781-8.679687 8.675781zm0 0"/><path d="m65.523438 442.621094c-14.425782-.023438-26.859376-10.167969-29.773438-24.296875-.957031-4.699219 2.074219-9.285157 6.773438-10.246094 4.699218-.957031 9.285156 2.074219 10.242187 6.773437 1.371094 6.710938 7.707031 11.214844 14.496094 10.296876 6.789062-.914063 11.707031-6.9375 11.246093-13.769532-.457031-6.835937-6.132812-12.144531-12.984374-12.148437-4.792969 0-8.675782-3.882813-8.675782-8.675781 0-4.792969 3.882813-8.679688 8.675782-8.679688 16.773437 0 30.375 13.597656 30.375 30.375 0 16.773438-13.601563 30.371094-30.375 30.371094zm0 0"/><path d="m143.625 442.621094c-21.894531 0-39.050781-22.875-39.050781-52.066406 0-29.195313 17.15625-52.070313 39.050781-52.070313s39.050781 22.875 39.050781 52.070313c0 29.191406-17.15625 52.066406-39.050781 52.066406zm0-86.777344c-11.757812 0-21.695312 15.894531-21.695312 34.710938 0 18.8125 9.9375 34.710937 21.695312 34.710937s21.695312-15.898437 21.695312-34.710937c0-18.816407-9.9375-34.710938-21.695312-34.710938zm0 0"/><path d="m217.386719 399.230469c-3.042969 0-5.867188-1.597657-7.433594-4.207031l-26.035156-43.390626c-2.363281-4.097656-1.007813-9.335937 3.046875-11.773437 4.054687-2.4375 9.316406-1.175781 11.828125 2.835937l18.59375 30.988282 18.597656-30.988282c1.566406-2.71875 4.480469-4.378906 7.617187-4.34375 3.136719.035157 6.011719 1.765626 7.515626 4.515626 1.503906 2.753906 1.40625 6.105468-.257813 8.765624l-26.035156 43.390626c-1.566407 2.609374-4.390625 4.207031-7.4375 4.207031zm0 0"/><path d="m217.386719 442.621094c-4.792969 0-8.675781-3.882813-8.675781-8.675782v-43.390624c0-4.792969 3.882812-8.679688 8.675781-8.679688s8.679687 3.886719 8.679687 8.679688v43.390624c0 4.792969-3.886718 8.675782-8.679687 8.675782zm0 0"/></g><path d="m61.183594 312.453125c-2.597656 0-5.058594-1.160156-6.710938-3.167969-1.648437-2.003906-2.3125-4.644531-1.808594-7.195312 3.628907-18.664063 9.503907-36.824219 17.492188-54.082032 2.042969-4.335937 7.214844-6.195312 11.550781-4.15625 4.339844 2.042969 6.199219 7.214844 4.15625 11.550782-7.394531 15.972656-12.824219 32.777344-16.175781 50.054687-.800781 4.0625-4.363281 6.992188-8.503906 6.996094zm0 0" fill="#af8066"/><path d="m95.898438 225.671875c-3.007813 0-5.800782-1.558594-7.378907-4.117187-1.582031-2.554688-1.726562-5.75-.382812-8.4375l8.679687-17.359376c2.140625-4.289062 7.355469-6.027343 11.644532-3.886718 4.289062 2.144531 6.03125 7.355468 3.890624 11.648437l-8.679687 17.355469c-1.472656 2.945312-4.484375 4.800781-7.773437 4.796875zm0 0" fill="#af8066"/></svg>