<svg viewBox="-8 0 464 464" xmlns="http://www.w3.org/2000/svg"><path d="m365.527344 439.089844c16.691406 10.996094 35.492187 18.386718 55.199218 21.703125l19.273438 3.207031c0-26.082031-7.71875-51.578125-22.183594-73.28125l-10.953125-13.917969 1.136719-.800781 8.800781-7.015625c19.730469-15.796875 31.210938-39.707031 31.199219-64.984375h-14.800781c-16.429688 0-32.496094 4.863281-46.167969 13.976562l-25.824219 17 6.792969-42.976562c0-15.464844-12.535156-28-28-28s-28 12.535156-28 28l6.601562 44.054688-25.601562-18.078126c-13.683594-9.121093-29.757812-13.984374-46.199219-13.976562h-14.800781c-.011719 25.277344 11.46875 49.1875 31.199219 64.984375l7.898437 6.320313-8.914062 15.414062c-14.464844 21.703125-22.183594 47.199219-22.183594 73.28125l19.265625-3.199219c18.929687-3.160156 36.949219-10.402343 52.796875-21.226562zm0 0" fill="#fdf1a9"/><path d="m24 432c0-15.617188 4.824219-30.855469 13.816406-43.625l83.457032-118.605469c36.398437-51.730469 67.792968-106.808593 93.75-164.488281l25.328124-56.28125c5.011719-11.113281 13.050782-20.589844 23.199219-27.34375l8.449219-5.65625-24-16-14.078125 21.121094c-1.285156 1.917968-2.664063 3.769531-4.136719 5.542968l-48.511718 58.214844c-46.046876 55.261719-85.976563 115.34375-119.082032 179.199219l-32.726562 63.121094c-19.359375 37.324219-29.464844 78.753906-29.464844 120.800781 0 8.835938 7.164062 16 16 16h8c8.835938 0 16-7.164062 16-16-8.835938 0-16-7.164062-16-16zm0 0" fill="#553b25"/><path d="m320 8-16-8-83.65625 202.167969c-8.21875 19.871093-17.609375 39.238281-28.121094 58l-85.421875 152.542969c-6.949219 12.414062-18.28125 21.785156-31.777343 26.28125-3.761719 1.273437-5.9375 5.203124-5.023438 9.070312.910156 3.863281 4.617188 6.402344 8.550781 5.859375l14.921875-2.128906c16.804688-2.398438 31.675782-12.15625 40.566406-26.617188l77.90625-126.582031c23.941407-38.910156 42.90625-80.667969 56.445313-124.296875zm0 0" fill="#553b25"/><path d="m388.550781 384.976562c-1.105469-1.375-2.058593-2.867187-2.839843-4.449218-.476563-1.863282-.746094-3.777344-.800782-5.703125.523438-5.636719-1.332031-11.238281-5.121094-15.445313-3.785156-4.207031-9.160156-6.644531-14.820312-6.714844-1.792969-.269531-3.550781-.71875-5.25-1.34375-1.511719-.878906-2.929688-1.910156-4.230469-3.082031-3.859375-4.515625-9.503906-7.117187-15.449219-7.117187-5.941406 0-11.585937 2.601562-15.445312 7.117187-1.300781 1.167969-2.714844 2.199219-4.226562 3.074219-1.695313.625-3.453126 1.074219-5.238282 1.34375-5.671875.066406-11.054687 2.496094-14.851562 6.707031-3.800782 4.210938-5.664063 9.8125-5.148438 15.460938-.054687 1.921875-.320312 3.832031-.800781 5.695312-.777344 1.585938-1.730469 3.082031-2.839844 4.457031-4.046875 3.949219-6.328125 9.367188-6.328125 15.023438s2.28125 11.074219 6.328125 15.023438c1.105469 1.375 2.058594 2.867187 2.839844 4.449218.476563 1.863282.746094 3.777344.800781 5.703125-.523437 5.636719 1.332032 11.238281 5.121094 15.445313 3.785156 4.207031 9.160156 6.644531 14.820312 6.714844 1.792969.269531 3.550782.71875 5.25 1.34375 1.511719.878906 2.929688 1.910156 4.230469 3.082031 4.128907 4.148437 9.613281 6.671875 15.449219 7.117187 5.957031-.460937 11.550781-3.039062 15.769531-7.269531 1.296875-1.136719 2.691407-2.160156 4.167969-3.058594 1.296875-.449219 2.636719-.777343 4-.984375 5.632812-.65625 10.957031-2.925781 15.335938-6.535156 4.011718-4.371094 6.082031-10.179688 5.734374-16.101562.011719-1.835938.238282-3.667969.671876-5.449219.777343-1.585938 1.730468-3.082031 2.839843-4.457031 4.046875-3.949219 6.328125-9.367188 6.328125-15.023438s-2.28125-11.074219-6.328125-15.023438zm0 0" fill="#f8bf51"/><path d="m343.921875 416h-7.84375c-2.085937.015625-4.09375-.785156-5.597656-2.230469-11.78125-11.777343-18.425781-27.734375-18.480469-44.394531v-9.375h16v9.375c.035156 11.253906 4.109375 22.121094 11.480469 30.625h1.039062c7.371094-8.503906 11.445313-19.371094 11.480469-30.625v-9.375h16v9.375c-.046875 16.65625-6.683594 32.613281-18.457031 44.394531-1.507813 1.449219-3.527344 2.25-5.621094 2.230469zm0 0" fill="#ed9c00"/></svg>