<?xml version="1.0" encoding="utf-8"?>
<!-- Generator: Adobe Illustrator 22.1.0, SVG Export Plug-In . SVG Version: 6.00 Build 0)  -->
<svg xmlns="http://www.w3.org/2000/svg" xmlns:xlink="http://www.w3.org/1999/xlink" version="1.1" id="Layer_1" x="0px" y="0px" viewBox="0 0 512 512" style="enable-background:new 0 0 512 512;" xml:space="preserve" width="512" height="512">
<style type="text/css">
	.st0{fill:#FFA730;}
	.st1{fill:#E58D23;}
	.st2{fill:#BF6C0D;}
	.st3{fill:#A56021;}
	.st4{fill:#FFD551;}
	.st5{fill:#FFF4C1;}
	.st6{fill:#FFC34C;}
	.st7{fill:#FFEA63;}
	.st8{fill:#FCE575;}
	.st9{fill:#FFB74B;}
	.st10{fill:#8C4C17;}
	.st11{fill:#F9BB32;}
	.st12{fill:#FF4B34;}
	.st13{fill:#FF9079;}
	.st14{fill:#FFDF74;}
	.st15{fill:#FF624B;}
	.st16{fill:#CCC033;}
	.st17{fill:#EACF32;}
	.st18{fill:#FFEACF;}
	.st19{fill:#99AF17;}
	.st20{fill:#FFD59A;}
	.st21{fill:#FCDA4F;}
	.st22{fill:#FCF9DE;}
	.st23{fill:#DB9C2E;}
</style>
<g>
	<g>
		<g>
			<path class="st4" d="M325.771,488.082H185.93c-14.359,0-26-11.641-26-26V347.9c0-14.359,11.641-26,26-26h140.84     c13.807,0,25,11.193,25,25v115.182C351.771,476.441,340.13,488.082,325.771,488.082z"/>
		</g>
	</g>
	<g>
		<g>
			<path class="st4" d="M317.101,107.486c0,0-0.479-0.141-0.959-0.221c-0.61-0.13-1.226-0.243-1.845-0.351     c-31.478-6.716-28.981-45.149-28.981-45.149V47.252c0-2.672-2.166-4.838-4.838-4.838h-56.209c-2.672,0-4.838,2.166-4.838,4.838     v14.513h-0.569c0,0,2.658,40.91-32.083,45.69c-0.053,0.008-0.106,0.016-0.159,0.025c-0.015,0.002-0.03,0.005-0.045,0.007h0.007     c-16.426,2.566-28.995,16.775-28.995,33.921v146.154c0,18.964,15.374,34.338,34.338,34.338h38.382h10.662h91.432     c12.156,0,22.011-9.855,22.011-22.011V154.614C354.412,131.695,338.486,112.51,317.101,107.486z M219.431,295.269     c0,3.206-2.599,5.806-5.806,5.806H195.56c-10.688,0-19.352-8.664-19.352-19.352V158.939c0-10.688,8.664-19.352,19.352-19.352     h18.065c3.206,0,5.806,2.599,5.806,5.806V295.269z"/>
		</g>
	</g>
	<g>
		<g>
			<g>
				<path class="st9" d="M219.431,295.269V145.392c0-3.206-2.599-5.806-5.806-5.806h-12.579c3.206,0,5.806,2.6,5.806,5.806v149.876      c0,3.206-2.599,5.806-5.806,5.806h12.579C216.832,301.074,219.431,298.475,219.431,295.269z"/>
			</g>
		</g>
	</g>
	<g>
		<g>
			<g>
				<path class="st6" d="M199.057,301.074h-3.497c-10.688,0-19.352-8.664-19.352-19.352V158.939      c0-10.688,8.664-19.352,19.352-19.352h0.784c0.853-16.323,13.102-29.626,28.943-32.1h-0.007c0.015-0.002,0.03-0.005,0.045-0.007      c0.053-0.009,0.106-0.017,0.159-0.025c34.74-4.779,32.083-45.69,32.083-45.69h0.569V47.252c0-2.672,2.166-4.838,4.838-4.838      h-38.705c-2.672,0-4.838,2.166-4.838,4.838v14.513h-0.569c0,0,2.658,40.91-32.083,45.69c-0.053,0.008-0.106,0.016-0.159,0.025      c-0.015,0.002-0.03,0.005-0.045,0.007h0.007c-16.426,2.566-28.995,16.775-28.995,33.921v146.154      c0,18.964,15.374,34.338,34.338,34.338h38.382h0.323C216.464,321.9,204.305,313.32,199.057,301.074z"/>
			</g>
		</g>
	</g>
	<g>
		<g>
			<path class="st1" d="M285.47,68.776h-66.763c-4.971,0-9-4.029-9-9V32.918c0-4.971,4.029-9,9-9h66.763c4.971,0,9,4.029,9,9v26.858     C294.47,64.747,290.441,68.776,285.47,68.776z"/>
		</g>
	</g>
	<g>
		<g>
			<path class="st6" d="M198.635,482.277V366.41c0-13.894,11.264-25.158,25.158-25.158h127.493     c-2.241-11.042-12.003-19.352-23.706-19.352H185.088c-13.894,0-25.158,11.264-25.158,25.158v115.866     c0,13.894,11.264,25.158,25.158,25.158h14.227C198.875,486.217,198.635,484.275,198.635,482.277z"/>
		</g>
	</g>
	<g>
		<g>
			<path class="st2" d="M248.412,60.067V32.626c0-4.81,3.899-8.709,8.709-8.709h-38.705c-4.81,0-8.709,3.899-8.709,8.709v27.441     c0,4.81,3.899,8.709,8.709,8.709h38.705C252.311,68.776,248.412,64.877,248.412,60.067z"/>
		</g>
	</g>
	<g>
		<g>
			<circle class="st6" cx="225.874" cy="458.663" r="15"/>
		</g>
	</g>
	<g>
		<g>
			<circle class="st6" cx="252.089" cy="254.227" r="15"/>
		</g>
	</g>
	<g>
		<g>
			<circle class="st6" cx="282.449" cy="282.579" r="15"/>
		</g>
	</g>
	<g>
		<g>
			<path class="st14" d="M334.643,260.227c-3.313,0-6-2.687-6-6v-95.555c0-3.313,2.687-6,6-6s6,2.687,6,6v95.555     C340.643,257.54,337.956,260.227,334.643,260.227z"/>
		</g>
	</g>
	<g>
		<g>
			<rect x="159.93" y="362.843" class="st5" width="191.84" height="70.231"/>
		</g>
	</g>
	<g>
		<g>
			<path class="st8" d="M198.635,366.41c0-1.211,0.091-2.401,0.256-3.567H159.93v70.231h38.705V366.41z"/>
		</g>
	</g>
	<g>
		<g>
			<path class="st22" d="M334.643,460.227c-3.313,0-6-2.687-6-6v-95.555c0-3.313,2.687-6,6-6s6,2.687,6,6v95.555     C340.643,457.54,337.956,460.227,334.643,460.227z"/>
		</g>
	</g>
</g>
</svg>
