<svg height="511pt" viewBox="0 0 511.99988 511" width="511pt" xmlns="http://www.w3.org/2000/svg" xmlns:xlink="http://www.w3.org/1999/xlink"><linearGradient id="a"><stop offset="0" stop-color="#ffb211"/><stop offset=".2259" stop-color="#faae16"/><stop offset=".502" stop-color="#eba425"/><stop offset=".8031" stop-color="#d4933e"/><stop offset="1" stop-color="#c08552"/></linearGradient><linearGradient id="b" gradientTransform="matrix(.709873 .709873 -.709873 .709873 62.974001 256.957673)" gradientUnits="userSpaceOnUse" x1="105.7015" x2="155.1806" xlink:href="#a" y1="-428.1646" y2="-422.6285"/><linearGradient id="c" gradientTransform="matrix(.709873 .709873 -.709873 .709873 62.974001 256.957673)" gradientUnits="userSpaceOnUse" x1="124.2675" x2="145.0279" xlink:href="#a" y1="-480.4809" y2="-443.4581"/><linearGradient id="d"><stop offset="0" stop-color="#6c7d47"/><stop offset="1" stop-color="#575c55"/></linearGradient><linearGradient id="e" gradientTransform="matrix(.709873 .709873 -.709873 .709873 62.974001 256.957673)" gradientUnits="userSpaceOnUse" x1="44.2884" x2="226.9804" xlink:href="#d" y1="-127.5098" y2="-127.5098"/><linearGradient id="f"><stop offset="0" stop-color="#45425a" stop-opacity="0"/><stop offset="1" stop-color="#2f004e"/></linearGradient><linearGradient id="g" gradientTransform="matrix(.709873 .709873 -.709873 .709873 62.974001 256.957673)" gradientUnits="userSpaceOnUse" x1="-48.3391" x2="312.2008" xlink:href="#f" y1="-90.3192" y2="-18.3497"/><linearGradient id="h" gradientTransform="matrix(.709873 .709873 -.709873 .709873 62.974001 256.957673)" gradientUnits="userSpaceOnUse" x1="138.685" x2="126.9207" xlink:href="#f" y1="150.9381" y2="69.2803"/><linearGradient id="i" gradientTransform="matrix(.709873 .709873 -.709873 .709873 62.974001 256.957673)" gradientUnits="userSpaceOnUse" x1="125.2368" x2="151.8794" xlink:href="#f" y1="-280.9462" y2="-190.9842"/><linearGradient id="j" gradientTransform="matrix(.709873 .709873 -.709873 .709873 62.974001 256.957673)" gradientUnits="userSpaceOnUse" x1="44.2884" x2="226.9804" y1="-26.7299" y2="-26.7299"><stop offset="0" stop-color="#ffe548"/><stop offset=".2472" stop-color="#ffe042"/><stop offset=".5621" stop-color="#ffd133"/><stop offset=".9123" stop-color="#ffb919"/><stop offset="1" stop-color="#ffb211"/></linearGradient><linearGradient id="k" gradientTransform="matrix(.709873 .709873 -.709873 .709873 62.974001 256.957673)" gradientUnits="userSpaceOnUse" x1="122.1401" x2="-128.0234" y1="-127.6238" y2="-127.6238"><stop offset=".0013" stop-color="#e7eeed" stop-opacity="0"/><stop offset=".7731" stop-color="#f9fbfa" stop-opacity=".772549"/><stop offset="1" stop-color="#fff"/></linearGradient><linearGradient id="l" gradientTransform="matrix(.709873 .709873 -.709873 .709873 62.974001 256.957673)" gradientUnits="userSpaceOnUse" x1="187.5365" x2="129.4072" y1="-308.6076" y2="-400.9917"><stop offset="0" stop-color="#575c55" stop-opacity="0"/><stop offset="1" stop-color="#575c55"/></linearGradient><linearGradient id="m" gradientTransform="matrix(.709873 .709873 -.709873 .709873 62.974001 256.957673)" gradientUnits="userSpaceOnUse" x1="132.5869" x2="138.469" xlink:href="#d" y1="-408.4086" y2="-378.9979"/><path d="m453.828125 96.480469-37.808594-37.808594 44.695313-57.484375 50.597656 50.597656zm0 0" fill="url(#b)"/><path d="m511.25 51.847656c-3.410156 3.410156-17.5-5.152344-31.472656-19.125s-22.535156-28.0625-19.125-31.472656 17.503906 5.148438 31.476562 19.121094 22.53125 28.066406 19.121094 31.476562zm0 0" fill="url(#c)"/><path d="m324.042969 318.144531-188.152344 188.152344c-3.375 3.375-7.671875 5.417969-12.160156 6.015625-4.484375.59375-9.171875-.230469-13.3125-2.601562-1.5625-.902344-3.117188-1.804688-4.65625-2.726563-1.085938-.644531-2.152344-1.28125-3.214844-1.945313-.425781-.25-.847656-.511718-1.265625-.78125-.921875-.570312-1.84375-1.152343-2.75-1.734374-.308594-.191407-.621094-.382813-.921875-.582032-.949219-.609375-1.90625-1.230468-2.84375-1.855468-.417969-.273438-.847656-.554688-1.257813-.832032-.988281-.648437-1.960937-1.3125-2.933593-1.976562-.339844-.234375-.671875-.460938-1.015625-.691406-1.179688-.824219-2.359375-1.652344-3.53125-2.484376-1.105469-.78125-2.203125-1.582031-3.292969-2.378906-.835937-.613281-1.660156-1.230468-2.484375-1.851562-.300781-.226563-.597656-.449219-.898438-.675782-.953124-.714843-1.902343-1.445312-2.839843-2.175781-.109375-.078125-.207031-.160156-.308594-.25-.914063-.707031-1.820313-1.421875-2.71875-2.144531-.398437-.308594-.789063-.625-1.179687-.941406-.730469-.582032-1.449219-1.171875-2.164063-1.769532-3.3125-2.71875-6.558594-5.511718-9.742187-8.371093-.691407-.632813-1.402344-1.265625-2.09375-1.914063-.222657-.195312-.425782-.386718-.640626-.585937l-.039062-.035157c-2.796875-2.578124-5.539062-5.21875-8.230469-7.90625-18.09375-18.097656-33.789062-38.597656-46.605469-61.019531-4.738281-8.289062-3.335937-18.722656 3.414063-25.472656l188.152344-188.152344c12.777343-12.777343 27.101562-23.800781 42.582031-32.84375 15.484375-9.039062 32.113281-16.09375 49.519531-20.941406 34.816407-9.703125 66.546875-28.230469 92.101563-53.785156l45.066406-45.066407 53.054688 53.054688-45.066407 45.066406c-9.578125 9.578125-18.179687 20.035156-25.695312 31.191406-1.253907 1.859376-2.476563 3.746094-3.660157 5.636719-1.195312 1.902344-2.351562 3.8125-3.480468 5.75-1.125 1.9375-2.222656 3.890625-3.292969 5.855469-10.726563 22.210938-14.617187 32.792969-17.65625 43.667969-9.695313 34.8125-28.222656 66.539062-53.785156 92.101562zm0 0" fill="url(#e)"/><path d="m323.308594 312.988281-188.15625 188.152344c-3.375 3.375-7.617188 5.46875-12.015625 6.152344-4.398438.6875-8.960938-.015625-12.957031-2.238281-1.5-.839844-3.003907-1.695313-4.484376-2.558594-1.046874-.605469-2.078124-1.207032-3.097656-1.828125-.410156-.234375-.816406-.476563-1.222656-.734375-.882812-.53125-1.773438-1.085938-2.644531-1.628906-.300781-.183594-.597657-.363282-.882813-.546876-.921875-.582031-1.84375-1.164062-2.742187-1.753906-.40625-.257812-.816407-.523437-1.214844-.785156-.953125-.613281-1.878906-1.230469-2.816406-1.859375-.332031-.226563-.648438-.441406-.980469-.65625-1.132812-.78125-2.269531-1.5625-3.394531-2.347656-1.0625-.738281-2.117188-1.496094-3.164063-2.25-.800781-.582031-1.589844-1.164063-2.386718-1.753907-.285157-.210937-.566407-.417968-.863282-.640624-.910156-.675782-1.824218-1.371094-2.71875-2.054688-.109375-.082031-.195312-.15625-.300781-.242188-.878906-.671874-1.746094-1.347656-2.609375-2.035156-.382812-.292968-.75-.589844-1.125-.890625-.699219-.554687-1.394531-1.113281-2.078125-1.679687-3.167969-2.578125-6.285156-5.238282-9.328125-7.957032-.664062-.605468-1.34375-1.210937-2.007812-1.828124-.210938-.183594-.402344-.363282-.609376-.550782l-.039062-.039062c-2.671875-2.453125-5.296875-4.972656-7.859375-7.539063-17.273437-17.273437-32.152344-36.953125-44.164063-58.574219-4.441406-7.996093-2.835937-18.222656 3.914063-24.972656l188.152344-188.152344c12.78125-12.777343 27.03125-23.875 42.363281-33.0625 15.105469-9.046874 31.273438-16.242187 48.117188-21.355468.246093-.082032.503906-.160156.753906-.234375.765625-.238281 1.523437-.464844 2.285156-.707031 8.613281.140624 29.289062 14.480468 50.222656 35.414062 20.9375 20.933594 35.273438 41.613281 35.414063 50.226562-.242188.757813-.476563 1.523438-.707031 2.28125-.074219.253907-.152344.511719-.234376.753907-10.304687 33.949219-29.046874 65.105469-54.417968 90.476562zm0 0" fill="url(#g)"/><path d="m127.808594 506.027344c-7.234375 7.234375-40.261719-14.0625-73.769532-47.566406-33.503906-33.507813-54.800781-66.535157-47.566406-73.769532 7.234375-7.238281 40.261719 14.058594 73.769532 47.566406 33.507812 33.507813 54.804687 66.535157 47.566406 73.769532zm0 0" fill="url(#h)"/><path d="m377.652344 222.59375c-5.234375 5.234375-29.121094-10.167969-53.351563-34.394531-24.226562-24.230469-39.628906-48.121094-34.394531-53.351563.027344-.027344.050781-.050781.085938-.074218.707031-.660157 1.730468-.964844 3.035156-.941407 8.613281.140625 29.292968 14.480469 50.226562 35.414063 20.933594 20.9375 35.273438 41.613281 35.414063 50.226562.023437 1.304688-.28125 2.328125-.941407 3.035156-.023437.035157-.046874.058594-.074218.085938zm0 0" fill="url(#i)"/><path d="m296.378906 345.8125c-2.636718-.453125-5.230468-1.351562-7.652344-2.738281-1.734374-1-3.457031-2.003907-5.164062-3.023438-1.199219-.710937-2.382812-1.421875-3.558594-2.15625-.476562-.277343-.941406-.5625-1.40625-.863281-1.019531-.632812-2.042968-1.277344-3.046875-1.921875-.34375-.210937-.683593-.425781-1.019531-.644531-1.054688-.679688-2.117188-1.363282-3.152344-2.058594-.464844-.300781-.941406-.613281-1.398437-.921875-1.09375-.71875-2.171875-1.453125-3.25-2.191406-.375-.261719-.742188-.511719-1.125-.765625-1.308594-.914063-2.617188-1.832032-3.914063-2.753906-1.226562-.867188-2.441406-1.757813-3.652344-2.636719-.921874-.679688-1.835937-1.367188-2.75-2.050781-.335937-.253907-.664062-.5-1-.75-1.050781-.792969-2.105468-1.601563-3.144531-2.410157-.121093-.089843-.226562-.179687-.34375-.277343-1.011719-.785157-2.015625-1.578126-3.011719-2.378907-.441406-.34375-.875-.695312-1.308593-1.042969-.808594-.648437-1.609375-1.300781-2.398438-1.960937-3.667969-3.015625-7.269531-6.109375-10.800781-9.277344-.765625-.703125-1.550781-1.40625-2.320312-2.125-.242188-.214843-.472657-.425781-.710938-.644531l-.039062-.042969c-3.105469-2.859375-6.144532-5.78125-9.125-8.761719-20.058594-20.0625-37.457032-42.785156-51.660157-67.640624-1.386719-2.421876-2.285156-5.015626-2.738281-7.652344l-96.15625 96.15625c.453125 2.636718 1.351562 5.230468 2.738281 7.652344 14.203125 24.855468 31.601563 47.578124 51.660157 67.636718 2.980468 2.984375 6.019531 5.90625 9.121093 8.765625l.042969.042969c.238281.21875.464844.429688.710938.644531.769531.71875 1.550781 1.417969 2.320312 2.121094 3.527344 3.171875 7.128906 6.265625 10.796875 9.28125.792969.660156 1.59375 1.3125 2.402344 1.960937.433593.347657.867187.699219 1.308593 1.042969.996094.800781 2 1.59375 3.011719 2.375.113281.101563.222657.1875.34375.28125 1.039063.804688 2.089844 1.617188 3.144531 2.40625.335938.253907.660157.5.996094.753907.914063.683593 1.828125 1.371093 2.753906 2.046874 1.207032.882813 2.425782 1.773438 3.652344 2.640626 1.296875.921874 2.605469 1.835937 3.910156 2.753906.386719.25.753907.503906 1.128907.765625 1.078125.734375 2.15625 1.46875 3.25 2.1875.457031.3125.929687.621093 1.394531.925781 1.039062.691406 2.101562 1.378906 3.152344 2.054688.335937.222656.679687.433593 1.023437.648437 1.003907.644531 2.023438 1.289063 3.046875 1.917969.464844.300781.929688.589844 1.402344.867187 1.179688.734375 2.363281 1.445313 3.5625 2.15625 1.707031 1.019531 3.429688 2.023438 5.160156 3.019531 2.425782 1.390626 5.015625 2.285157 7.65625 2.738282zm0 0" fill="url(#j)"/><path d="m324.042969 318.144531-188.152344 188.152344c-3.375 3.375-7.671875 5.417969-12.160156 6.015625-4.484375.59375-9.171875-.230469-13.3125-2.601562-1.5625-.902344-3.117188-1.804688-4.65625-2.726563-1.085938-.644531-2.152344-1.28125-3.214844-1.945313-.425781-.25-.847656-.511718-1.265625-.78125-.921875-.570312-1.84375-1.152343-2.75-1.734374-.308594-.191407-.621094-.382813-.921875-.582032-.949219-.609375-1.90625-1.230468-2.84375-1.855468-.417969-.273438-.847656-.554688-1.257813-.832032-.988281-.648437-1.960937-1.3125-2.933593-1.976562-.339844-.234375-.671875-.460938-1.015625-.691406-1.179688-.824219-2.359375-1.652344-3.53125-2.484376-1.105469-.78125-2.203125-1.582031-3.292969-2.378906-.835937-.613281-1.660156-1.230468-2.484375-1.851562-.300781-.226563-.597656-.449219-.898438-.675782-.953124-.714843-1.902343-1.445312-2.839843-2.175781-.109375-.078125-.207031-.160156-.308594-.25-.914063-.707031-1.820313-1.421875-2.71875-2.144531-.398437-.308594-.789063-.625-1.179687-.941406-.730469-.582032-1.449219-1.171875-2.164063-1.769532-3.3125-2.71875-6.558594-5.511718-9.742187-8.371093-.691407-.632813-1.402344-1.265625-2.09375-1.914063-.222657-.195312-.425782-.386718-.640626-.585937l-.039062-.035157c-14.75-15.992187-27.742188-33.652343-38.625-52.714843-6.09375-6.09375-6.09375-15.96875 0-22.0625l191.5625-191.566407c25.5625-25.5625 57.292969-44.085937 92.101562-53.78125 34.816407-9.707031 66.546876-28.230468 92.101563-53.785156l45.070313-45.066406 36.84375 36.84375-45.070313 45.066406c-9.578125 9.578125-18.175781 20.035156-25.691406 31.191406-1.246094 1.863282-2.46875 3.734376-3.664063 5.636719-1.1875 1.894531-2.351562 3.808594-3.476562 5.746094-1.128906 1.9375-2.226563 3.890625-3.292969 5.859375-10.730469 22.210938-14.621094 32.792969-17.65625 43.667969-9.695313 34.8125-28.222656 66.539062-53.785156 92.101562zm0 0" fill="url(#k)"/><path d="m398.777344 176.519531c1.128906-1.9375 2.285156-3.847656 3.476562-5.75 1.1875-1.890625 2.410156-3.777343 3.664063-5.636719 7.515625-11.15625 16.117187-21.613281 25.695312-31.191406l45.066407-45.066406-53.054688-53.054688-26.527344 26.527344v117.160156c.558594-.996093 1.105469-2 1.679688-2.988281zm0 0" fill="url(#l)"/><path d="m447.667969 112.917969-48.085938-48.085938c-5.238281-5.238281-5.238281-13.730469 0-18.96875l10.503907-10.507812c5.238281-5.238281 13.730468-5.238281 18.96875 0l48.089843 48.089843c5.238281 5.238282 5.238281 13.730469 0 18.96875l-10.507812 10.503907c-5.238281 5.238281-13.730469 5.238281-18.96875 0zm0 0" fill="url(#m)"/></svg>